<mxfile host="app.diagrams.net" modified="2024-02-13T15:05:29.482Z" agent="Mozilla/5.0 (Windows NT 10.0; Win64; x64) AppleWebKit/537.36 (KHTML, like Gecko) Chrome/121.0.0.0 Safari/537.36" etag="argarZXZT_a7Gn6YMqI_" version="23.1.3" type="device">
  <diagram id="C5RBs43oDa-KdzZeNtuy" name="Page-1">
    <mxGraphModel dx="1974" dy="1823" grid="1" gridSize="10" guides="1" tooltips="1" connect="1" arrows="1" fold="1" page="1" pageScale="1" pageWidth="827" pageHeight="1169" math="0" shadow="0">
      <root>
        <mxCell id="WIyWlLk6GJQsqaUBKTNV-0" />
        <mxCell id="WIyWlLk6GJQsqaUBKTNV-1" parent="WIyWlLk6GJQsqaUBKTNV-0" />
        <mxCell id="G6Bq0T_JhJ_VnhZVB8g7-81" style="edgeStyle=orthogonalEdgeStyle;rounded=0;orthogonalLoop=1;jettySize=auto;html=1;entryX=-0.009;entryY=-0.385;entryDx=0;entryDy=0;entryPerimeter=0;dashed=1;endArrow=open;endFill=0;endSize=10;" parent="WIyWlLk6GJQsqaUBKTNV-1" source="zkfFHV4jXpPFQw0GAbJ--0" target="G6Bq0T_JhJ_VnhZVB8g7-22" edge="1">
          <mxGeometry relative="1" as="geometry">
            <Array as="points">
              <mxPoint x="1150" y="70" />
              <mxPoint x="1150" y="1040" />
            </Array>
          </mxGeometry>
        </mxCell>
        <mxCell id="zkfFHV4jXpPFQw0GAbJ--0" value="System" style="swimlane;fontStyle=2;align=center;verticalAlign=top;childLayout=stackLayout;horizontal=1;startSize=30;horizontalStack=0;resizeParent=1;resizeLast=0;collapsible=1;marginBottom=0;rounded=0;shadow=0;strokeWidth=1;" parent="WIyWlLk6GJQsqaUBKTNV-1" vertex="1">
          <mxGeometry x="420" y="20" width="160" height="164" as="geometry">
            <mxRectangle x="220" y="120" width="160" height="26" as="alternateBounds" />
          </mxGeometry>
        </mxCell>
        <mxCell id="8TV9mCil5T5AzZmrMEOW-24" value="-Manager* mngr_" style="text;align=left;verticalAlign=top;spacingLeft=4;spacingRight=4;overflow=hidden;rotatable=0;points=[[0,0.5],[1,0.5]];portConstraint=eastwest;container=0;strokeColor=default;" parent="zkfFHV4jXpPFQw0GAbJ--0" vertex="1">
          <mxGeometry y="30" width="160" height="26" as="geometry" />
        </mxCell>
        <mxCell id="zkfFHV4jXpPFQw0GAbJ--5" value="+initSystem()" style="text;align=left;verticalAlign=top;spacingLeft=4;spacingRight=4;overflow=hidden;rotatable=0;points=[[0,0.5],[1,0.5]];portConstraint=eastwest;" parent="zkfFHV4jXpPFQw0GAbJ--0" vertex="1">
          <mxGeometry y="56" width="160" height="26" as="geometry" />
        </mxCell>
        <mxCell id="8TV9mCil5T5AzZmrMEOW-4" value="+update()" style="text;align=left;verticalAlign=top;spacingLeft=4;spacingRight=4;overflow=hidden;rotatable=0;points=[[0,0.5],[1,0.5]];portConstraint=eastwest;" parent="zkfFHV4jXpPFQw0GAbJ--0" vertex="1">
          <mxGeometry y="82" width="160" height="26" as="geometry" />
        </mxCell>
        <mxCell id="8TV9mCil5T5AzZmrMEOW-5" value="+recieve(Message&amp; m)" style="text;align=left;verticalAlign=top;spacingLeft=4;spacingRight=4;overflow=hidden;rotatable=0;points=[[0,0.5],[1,0.5]];portConstraint=eastwest;" parent="zkfFHV4jXpPFQw0GAbJ--0" vertex="1">
          <mxGeometry y="108" width="160" height="26" as="geometry" />
        </mxCell>
        <mxCell id="zkfFHV4jXpPFQw0GAbJ--6" value="GameControlSystem" style="swimlane;fontStyle=0;align=center;verticalAlign=top;childLayout=stackLayout;horizontal=1;startSize=26;horizontalStack=0;resizeParent=1;resizeLast=0;collapsible=1;marginBottom=0;rounded=0;shadow=0;strokeWidth=1;" parent="WIyWlLk6GJQsqaUBKTNV-1" vertex="1">
          <mxGeometry x="120" y="360" width="160" height="216" as="geometry">
            <mxRectangle x="130" y="380" width="160" height="26" as="alternateBounds" />
          </mxGeometry>
        </mxCell>
        <mxCell id="zkfFHV4jXpPFQw0GAbJ--7" value="+static sysId_type id" style="text;align=left;verticalAlign=top;spacingLeft=4;spacingRight=4;overflow=hidden;rotatable=0;points=[[0,0.5],[1,0.5]];portConstraint=eastwest;" parent="zkfFHV4jXpPFQw0GAbJ--6" vertex="1">
          <mxGeometry y="26" width="160" height="26" as="geometry" />
        </mxCell>
        <mxCell id="zkfFHV4jXpPFQw0GAbJ--8" value="-uint8_t winner_" style="text;align=left;verticalAlign=top;spacingLeft=4;spacingRight=4;overflow=hidden;rotatable=0;points=[[0,0.5],[1,0.5]];portConstraint=eastwest;rounded=0;shadow=0;html=0;" parent="zkfFHV4jXpPFQw0GAbJ--6" vertex="1">
          <mxGeometry y="52" width="160" height="26" as="geometry" />
        </mxCell>
        <mxCell id="zkfFHV4jXpPFQw0GAbJ--9" value="" style="line;html=1;strokeWidth=1;align=left;verticalAlign=middle;spacingTop=-1;spacingLeft=3;spacingRight=3;rotatable=0;labelPosition=right;points=[];portConstraint=eastwest;" parent="zkfFHV4jXpPFQw0GAbJ--6" vertex="1">
          <mxGeometry y="78" width="160" height="8" as="geometry" />
        </mxCell>
        <mxCell id="zkfFHV4jXpPFQw0GAbJ--10" value="+recieve(Message&amp; m)" style="text;align=left;verticalAlign=top;spacingLeft=4;spacingRight=4;overflow=hidden;rotatable=0;points=[[0,0.5],[1,0.5]];portConstraint=eastwest;fontStyle=4" parent="zkfFHV4jXpPFQw0GAbJ--6" vertex="1">
          <mxGeometry y="86" width="160" height="26" as="geometry" />
        </mxCell>
        <mxCell id="zkfFHV4jXpPFQw0GAbJ--11" value="+initSystem()" style="text;align=left;verticalAlign=top;spacingLeft=4;spacingRight=4;overflow=hidden;rotatable=0;points=[[0,0.5],[1,0.5]];portConstraint=eastwest;" parent="zkfFHV4jXpPFQw0GAbJ--6" vertex="1">
          <mxGeometry y="112" width="160" height="26" as="geometry" />
        </mxCell>
        <mxCell id="8TV9mCil5T5AzZmrMEOW-25" value="+update()" style="text;align=left;verticalAlign=top;spacingLeft=4;spacingRight=4;overflow=hidden;rotatable=0;points=[[0,0.5],[1,0.5]];portConstraint=eastwest;" parent="zkfFHV4jXpPFQw0GAbJ--6" vertex="1">
          <mxGeometry y="138" width="160" height="26" as="geometry" />
        </mxCell>
        <mxCell id="8TV9mCil5T5AzZmrMEOW-26" value="-onEnemiesExtiction()" style="text;align=left;verticalAlign=top;spacingLeft=4;spacingRight=4;overflow=hidden;rotatable=0;points=[[0,0.5],[1,0.5]];portConstraint=eastwest;" parent="zkfFHV4jXpPFQw0GAbJ--6" vertex="1">
          <mxGeometry y="164" width="160" height="26" as="geometry" />
        </mxCell>
        <mxCell id="8TV9mCil5T5AzZmrMEOW-27" value="-onMainTowerDestroed()" style="text;align=left;verticalAlign=top;spacingLeft=4;spacingRight=4;overflow=hidden;rotatable=0;points=[[0,0.5],[1,0.5]];portConstraint=eastwest;" parent="zkfFHV4jXpPFQw0GAbJ--6" vertex="1">
          <mxGeometry y="190" width="160" height="26" as="geometry" />
        </mxCell>
        <mxCell id="zkfFHV4jXpPFQw0GAbJ--12" value="" style="endArrow=block;endSize=10;endFill=0;shadow=0;strokeWidth=1;rounded=0;edgeStyle=elbowEdgeStyle;elbow=vertical;" parent="WIyWlLk6GJQsqaUBKTNV-1" source="zkfFHV4jXpPFQw0GAbJ--6" target="zkfFHV4jXpPFQw0GAbJ--0" edge="1">
          <mxGeometry width="160" relative="1" as="geometry">
            <mxPoint x="200" y="203" as="sourcePoint" />
            <mxPoint x="200" y="203" as="targetPoint" />
          </mxGeometry>
        </mxCell>
        <mxCell id="zkfFHV4jXpPFQw0GAbJ--13" value="RenderSystem" style="swimlane;fontStyle=0;align=center;verticalAlign=top;childLayout=stackLayout;horizontal=1;startSize=26;horizontalStack=0;resizeParent=1;resizeLast=0;collapsible=1;marginBottom=0;rounded=0;shadow=0;strokeWidth=1;" parent="WIyWlLk6GJQsqaUBKTNV-1" vertex="1">
          <mxGeometry x="320" y="360" width="160" height="420" as="geometry">
            <mxRectangle x="340" y="380" width="170" height="26" as="alternateBounds" />
          </mxGeometry>
        </mxCell>
        <mxCell id="zkfFHV4jXpPFQw0GAbJ--14" value="+static sysId_type id" style="text;align=left;verticalAlign=top;spacingLeft=4;spacingRight=4;overflow=hidden;rotatable=0;points=[[0,0.5],[1,0.5]];portConstraint=eastwest;strokeColor=none;" parent="zkfFHV4jXpPFQw0GAbJ--13" vertex="1">
          <mxGeometry y="26" width="160" height="26" as="geometry" />
        </mxCell>
        <mxCell id="8TV9mCil5T5AzZmrMEOW-31" value="-uint8_t winner_" style="text;align=left;verticalAlign=top;spacingLeft=4;spacingRight=4;overflow=hidden;rotatable=0;points=[[0,0.5],[1,0.5]];portConstraint=eastwest;strokeColor=none;" parent="zkfFHV4jXpPFQw0GAbJ--13" vertex="1">
          <mxGeometry y="52" width="160" height="26" as="geometry" />
        </mxCell>
        <mxCell id="8TV9mCil5T5AzZmrMEOW-32" value="-Transform* textTr[]" style="text;align=left;verticalAlign=top;spacingLeft=4;spacingRight=4;overflow=hidden;rotatable=0;points=[[0,0.5],[1,0.5]];portConstraint=eastwest;strokeColor=none;" parent="zkfFHV4jXpPFQw0GAbJ--13" vertex="1">
          <mxGeometry y="78" width="160" height="26" as="geometry" />
        </mxCell>
        <mxCell id="8TV9mCil5T5AzZmrMEOW-34" value="-Texture* textTextures[]" style="text;align=left;verticalAlign=top;spacingLeft=4;spacingRight=4;overflow=hidden;rotatable=0;points=[[0,0.5],[1,0.5]];portConstraint=eastwest;strokeColor=none;" parent="zkfFHV4jXpPFQw0GAbJ--13" vertex="1">
          <mxGeometry y="104" width="160" height="26" as="geometry" />
        </mxCell>
        <mxCell id="8TV9mCil5T5AzZmrMEOW-36" value="-stateText currStTxt" style="text;align=left;verticalAlign=top;spacingLeft=4;spacingRight=4;overflow=hidden;rotatable=0;points=[[0,0.5],[1,0.5]];portConstraint=eastwest;strokeColor=none;" parent="zkfFHV4jXpPFQw0GAbJ--13" vertex="1">
          <mxGeometry y="130" width="160" height="26" as="geometry" />
        </mxCell>
        <mxCell id="8TV9mCil5T5AzZmrMEOW-37" value="-Texture* textures[]" style="text;align=left;verticalAlign=top;spacingLeft=4;spacingRight=4;overflow=hidden;rotatable=0;points=[[0,0.5],[1,0.5]];portConstraint=eastwest;strokeColor=none;fillColor=none;" parent="zkfFHV4jXpPFQw0GAbJ--13" vertex="1">
          <mxGeometry y="156" width="160" height="26" as="geometry" />
        </mxCell>
        <mxCell id="8TV9mCil5T5AzZmrMEOW-51" value="" style="text;align=left;verticalAlign=middle;spacingLeft=3;spacingRight=3;overflow=hidden;rotatable=0;points=[[0,0.5],[1,0.5]];portConstraint=eastwest;strokeColor=default;fillColor=default;html=1;labelBackgroundColor=default;labelPosition=right;verticalLabelPosition=middle;spacingTop=-1;" parent="zkfFHV4jXpPFQw0GAbJ--13" vertex="1">
          <mxGeometry y="182" width="160" height="1" as="geometry" />
        </mxCell>
        <mxCell id="8TV9mCil5T5AzZmrMEOW-52" value="+recieve(Message&amp; m)" style="text;align=left;verticalAlign=top;spacingLeft=4;spacingRight=4;overflow=hidden;rotatable=0;points=[[0,0.5],[1,0.5]];portConstraint=eastwest;strokeColor=none;fillColor=none;labelBackgroundColor=none;labelPosition=center;verticalLabelPosition=middle;spacingTop=0;" parent="zkfFHV4jXpPFQw0GAbJ--13" vertex="1">
          <mxGeometry y="183" width="160" height="26" as="geometry" />
        </mxCell>
        <mxCell id="8TV9mCil5T5AzZmrMEOW-54" value="+initSystem()" style="text;align=left;verticalAlign=top;spacingLeft=4;spacingRight=4;overflow=hidden;rotatable=0;points=[[0,0.5],[1,0.5]];portConstraint=eastwest;strokeColor=none;fillColor=none;labelBackgroundColor=none;labelPosition=center;verticalLabelPosition=middle;spacingTop=0;" parent="zkfFHV4jXpPFQw0GAbJ--13" vertex="1">
          <mxGeometry y="209" width="160" height="26" as="geometry" />
        </mxCell>
        <mxCell id="8TV9mCil5T5AzZmrMEOW-53" value="+update()" style="text;align=left;verticalAlign=top;spacingLeft=4;spacingRight=4;overflow=hidden;rotatable=0;points=[[0,0.5],[1,0.5]];portConstraint=eastwest;strokeColor=none;fillColor=none;labelBackgroundColor=none;labelPosition=center;verticalLabelPosition=middle;spacingTop=0;" parent="zkfFHV4jXpPFQw0GAbJ--13" vertex="1">
          <mxGeometry y="235" width="160" height="26" as="geometry" />
        </mxCell>
        <mxCell id="8TV9mCil5T5AzZmrMEOW-55" value="-addText(stateText stt)" style="text;align=left;verticalAlign=top;spacingLeft=4;spacingRight=4;overflow=hidden;rotatable=0;points=[[0,0.5],[1,0.5]];portConstraint=eastwest;strokeColor=none;fillColor=none;labelBackgroundColor=none;labelPosition=center;verticalLabelPosition=middle;spacingTop=0;" parent="zkfFHV4jXpPFQw0GAbJ--13" vertex="1">
          <mxGeometry y="261" width="160" height="26" as="geometry" />
        </mxCell>
        <mxCell id="8TV9mCil5T5AzZmrMEOW-57" value="-onRoundStart()" style="text;align=left;verticalAlign=top;spacingLeft=4;spacingRight=4;overflow=hidden;rotatable=0;points=[[0,0.5],[1,0.5]];portConstraint=eastwest;strokeColor=none;fillColor=none;labelBackgroundColor=none;labelPosition=center;verticalLabelPosition=middle;spacingTop=0;" parent="zkfFHV4jXpPFQw0GAbJ--13" vertex="1">
          <mxGeometry y="287" width="160" height="26" as="geometry" />
        </mxCell>
        <mxCell id="8TV9mCil5T5AzZmrMEOW-58" value="-onGameStart()" style="text;align=left;verticalAlign=top;spacingLeft=4;spacingRight=4;overflow=hidden;rotatable=0;points=[[0,0.5],[1,0.5]];portConstraint=eastwest;strokeColor=none;fillColor=none;labelBackgroundColor=none;labelPosition=center;verticalLabelPosition=middle;spacingTop=0;" parent="zkfFHV4jXpPFQw0GAbJ--13" vertex="1">
          <mxGeometry y="313" width="160" height="26" as="geometry" />
        </mxCell>
        <mxCell id="8TV9mCil5T5AzZmrMEOW-59" value="-onGamerOver()" style="text;align=left;verticalAlign=top;spacingLeft=4;spacingRight=4;overflow=hidden;rotatable=0;points=[[0,0.5],[1,0.5]];portConstraint=eastwest;strokeColor=none;fillColor=none;labelBackgroundColor=none;labelPosition=center;verticalLabelPosition=middle;spacingTop=0;" parent="zkfFHV4jXpPFQw0GAbJ--13" vertex="1">
          <mxGeometry y="339" width="160" height="26" as="geometry" />
        </mxCell>
        <mxCell id="8TV9mCil5T5AzZmrMEOW-60" value="-onPause()" style="text;align=left;verticalAlign=top;spacingLeft=4;spacingRight=4;overflow=hidden;rotatable=0;points=[[0,0.5],[1,0.5]];portConstraint=eastwest;strokeColor=none;fillColor=none;labelBackgroundColor=none;labelPosition=center;verticalLabelPosition=middle;spacingTop=0;" parent="zkfFHV4jXpPFQw0GAbJ--13" vertex="1">
          <mxGeometry y="365" width="160" height="26" as="geometry" />
        </mxCell>
        <mxCell id="8TV9mCil5T5AzZmrMEOW-61" value="-onResume()" style="text;align=left;verticalAlign=top;spacingLeft=4;spacingRight=4;overflow=hidden;rotatable=0;points=[[0,0.5],[1,0.5]];portConstraint=eastwest;strokeColor=none;fillColor=none;labelBackgroundColor=none;labelPosition=center;verticalLabelPosition=middle;spacingTop=0;" parent="zkfFHV4jXpPFQw0GAbJ--13" vertex="1">
          <mxGeometry y="391" width="160" height="26" as="geometry" />
        </mxCell>
        <mxCell id="zkfFHV4jXpPFQw0GAbJ--16" value="" style="endArrow=block;endSize=10;endFill=0;shadow=0;strokeWidth=1;rounded=0;edgeStyle=elbowEdgeStyle;elbow=vertical;" parent="WIyWlLk6GJQsqaUBKTNV-1" source="zkfFHV4jXpPFQw0GAbJ--13" target="zkfFHV4jXpPFQw0GAbJ--0" edge="1">
          <mxGeometry width="160" relative="1" as="geometry">
            <mxPoint x="210" y="373" as="sourcePoint" />
            <mxPoint x="310" y="271" as="targetPoint" />
          </mxGeometry>
        </mxCell>
        <mxCell id="8TV9mCil5T5AzZmrMEOW-74" style="edgeStyle=elbowEdgeStyle;rounded=0;orthogonalLoop=1;jettySize=auto;html=1;entryX=0.5;entryY=1;entryDx=0;entryDy=0;endArrow=block;endFill=0;endSize=10;elbow=vertical;" parent="WIyWlLk6GJQsqaUBKTNV-1" source="8TV9mCil5T5AzZmrMEOW-64" target="zkfFHV4jXpPFQw0GAbJ--0" edge="1">
          <mxGeometry relative="1" as="geometry" />
        </mxCell>
        <mxCell id="8TV9mCil5T5AzZmrMEOW-64" value="CollisionSystem" style="swimlane;fontStyle=2;align=center;verticalAlign=top;childLayout=stackLayout;horizontal=1;startSize=30;horizontalStack=0;resizeParent=1;resizeLast=0;collapsible=1;marginBottom=0;rounded=0;shadow=0;strokeWidth=1;" parent="WIyWlLk6GJQsqaUBKTNV-1" vertex="1">
          <mxGeometry x="530" y="360" width="160" height="265" as="geometry">
            <mxRectangle x="220" y="120" width="160" height="26" as="alternateBounds" />
          </mxGeometry>
        </mxCell>
        <mxCell id="8TV9mCil5T5AzZmrMEOW-79" value="+static sysId_type id" style="text;align=left;verticalAlign=top;spacingLeft=4;spacingRight=4;overflow=hidden;rotatable=0;points=[[0,0.5],[1,0.5]];portConstraint=eastwest;container=0;strokeColor=none;" parent="8TV9mCil5T5AzZmrMEOW-64" vertex="1">
          <mxGeometry y="30" width="160" height="26" as="geometry" />
        </mxCell>
        <mxCell id="8TV9mCil5T5AzZmrMEOW-65" value="-Transform* enemies[]" style="text;align=left;verticalAlign=top;spacingLeft=4;spacingRight=4;overflow=hidden;rotatable=0;points=[[0,0.5],[1,0.5]];portConstraint=eastwest;container=0;strokeColor=none;" parent="8TV9mCil5T5AzZmrMEOW-64" vertex="1">
          <mxGeometry y="56" width="160" height="26" as="geometry" />
        </mxCell>
        <mxCell id="8TV9mCil5T5AzZmrMEOW-76" value="-bool active_" style="text;align=left;verticalAlign=top;spacingLeft=4;spacingRight=4;overflow=hidden;rotatable=0;points=[[0,0.5],[1,0.5]];portConstraint=eastwest;container=0;strokeColor=none;" parent="8TV9mCil5T5AzZmrMEOW-64" vertex="1">
          <mxGeometry y="82" width="160" height="26" as="geometry" />
        </mxCell>
        <mxCell id="8TV9mCil5T5AzZmrMEOW-77" style="text;align=left;verticalAlign=top;spacingLeft=4;spacingRight=4;overflow=hidden;rotatable=0;points=[[0,0.5],[1,0.5]];portConstraint=eastwest;container=0;strokeColor=default;fontSize=12;" parent="8TV9mCil5T5AzZmrMEOW-64" vertex="1">
          <mxGeometry y="108" width="160" height="1" as="geometry" />
        </mxCell>
        <mxCell id="8TV9mCil5T5AzZmrMEOW-66" value="+initSystem()" style="text;align=left;verticalAlign=top;spacingLeft=4;spacingRight=4;overflow=hidden;rotatable=0;points=[[0,0.5],[1,0.5]];portConstraint=eastwest;" parent="8TV9mCil5T5AzZmrMEOW-64" vertex="1">
          <mxGeometry y="109" width="160" height="26" as="geometry" />
        </mxCell>
        <mxCell id="8TV9mCil5T5AzZmrMEOW-67" value="+update()" style="text;align=left;verticalAlign=top;spacingLeft=4;spacingRight=4;overflow=hidden;rotatable=0;points=[[0,0.5],[1,0.5]];portConstraint=eastwest;" parent="8TV9mCil5T5AzZmrMEOW-64" vertex="1">
          <mxGeometry y="135" width="160" height="26" as="geometry" />
        </mxCell>
        <mxCell id="8TV9mCil5T5AzZmrMEOW-68" value="+recieve(Message&amp; m)" style="text;align=left;verticalAlign=top;spacingLeft=4;spacingRight=4;overflow=hidden;rotatable=0;points=[[0,0.5],[1,0.5]];portConstraint=eastwest;" parent="8TV9mCil5T5AzZmrMEOW-64" vertex="1">
          <mxGeometry y="161" width="160" height="26" as="geometry" />
        </mxCell>
        <mxCell id="8TV9mCil5T5AzZmrMEOW-80" value="-onRoundOver()" style="text;align=left;verticalAlign=top;spacingLeft=4;spacingRight=4;overflow=hidden;rotatable=0;points=[[0,0.5],[1,0.5]];portConstraint=eastwest;" parent="8TV9mCil5T5AzZmrMEOW-64" vertex="1">
          <mxGeometry y="187" width="160" height="26" as="geometry" />
        </mxCell>
        <mxCell id="8TV9mCil5T5AzZmrMEOW-81" value="-onRoundStart()" style="text;align=left;verticalAlign=top;spacingLeft=4;spacingRight=4;overflow=hidden;rotatable=0;points=[[0,0.5],[1,0.5]];portConstraint=eastwest;" parent="8TV9mCil5T5AzZmrMEOW-64" vertex="1">
          <mxGeometry y="213" width="160" height="26" as="geometry" />
        </mxCell>
        <mxCell id="8TV9mCil5T5AzZmrMEOW-82" value="-collideswithEnemy()" style="text;align=left;verticalAlign=top;spacingLeft=4;spacingRight=4;overflow=hidden;rotatable=0;points=[[0,0.5],[1,0.5]];portConstraint=eastwest;" parent="8TV9mCil5T5AzZmrMEOW-64" vertex="1">
          <mxGeometry y="239" width="160" height="26" as="geometry" />
        </mxCell>
        <mxCell id="8TV9mCil5T5AzZmrMEOW-94" value="&lt;br&gt;" style="edgeStyle=elbowEdgeStyle;rounded=0;orthogonalLoop=1;jettySize=auto;html=1;fontSize=11;endSize=10;endArrow=block;endFill=0;elbow=vertical;entryX=0.5;entryY=1;entryDx=0;entryDy=0;" parent="WIyWlLk6GJQsqaUBKTNV-1" source="8TV9mCil5T5AzZmrMEOW-83" target="zkfFHV4jXpPFQw0GAbJ--0" edge="1">
          <mxGeometry relative="1" as="geometry">
            <mxPoint x="590" y="210" as="targetPoint" />
            <Array as="points" />
          </mxGeometry>
        </mxCell>
        <mxCell id="8TV9mCil5T5AzZmrMEOW-83" value="EnemiesSystem" style="swimlane;fontStyle=2;align=center;verticalAlign=top;childLayout=stackLayout;horizontal=1;startSize=30;horizontalStack=0;resizeParent=1;resizeLast=0;collapsible=1;marginBottom=0;rounded=0;shadow=0;strokeWidth=1;" parent="WIyWlLk6GJQsqaUBKTNV-1" vertex="1">
          <mxGeometry x="740" y="360" width="160" height="265" as="geometry">
            <mxRectangle x="220" y="120" width="160" height="26" as="alternateBounds" />
          </mxGeometry>
        </mxCell>
        <mxCell id="8TV9mCil5T5AzZmrMEOW-84" value="+static sysId_type id" style="text;align=left;verticalAlign=top;spacingLeft=4;spacingRight=4;overflow=hidden;rotatable=0;points=[[0,0.5],[1,0.5]];portConstraint=eastwest;container=0;strokeColor=none;" parent="8TV9mCil5T5AzZmrMEOW-83" vertex="1">
          <mxGeometry y="30" width="160" height="26" as="geometry" />
        </mxCell>
        <mxCell id="8TV9mCil5T5AzZmrMEOW-85" value="-Transform* enemies[]" style="text;align=left;verticalAlign=top;spacingLeft=4;spacingRight=4;overflow=hidden;rotatable=0;points=[[0,0.5],[1,0.5]];portConstraint=eastwest;container=0;strokeColor=none;" parent="8TV9mCil5T5AzZmrMEOW-83" vertex="1">
          <mxGeometry y="56" width="160" height="26" as="geometry" />
        </mxCell>
        <mxCell id="8TV9mCil5T5AzZmrMEOW-86" value="-bool active_" style="text;align=left;verticalAlign=top;spacingLeft=4;spacingRight=4;overflow=hidden;rotatable=0;points=[[0,0.5],[1,0.5]];portConstraint=eastwest;container=0;strokeColor=none;" parent="8TV9mCil5T5AzZmrMEOW-83" vertex="1">
          <mxGeometry y="82" width="160" height="26" as="geometry" />
        </mxCell>
        <mxCell id="8TV9mCil5T5AzZmrMEOW-87" style="text;align=left;verticalAlign=top;spacingLeft=4;spacingRight=4;overflow=hidden;rotatable=0;points=[[0,0.5],[1,0.5]];portConstraint=eastwest;container=0;strokeColor=default;fontSize=12;" parent="8TV9mCil5T5AzZmrMEOW-83" vertex="1">
          <mxGeometry y="108" width="160" height="1" as="geometry" />
        </mxCell>
        <mxCell id="8TV9mCil5T5AzZmrMEOW-88" value="+initSystem()" style="text;align=left;verticalAlign=top;spacingLeft=4;spacingRight=4;overflow=hidden;rotatable=0;points=[[0,0.5],[1,0.5]];portConstraint=eastwest;" parent="8TV9mCil5T5AzZmrMEOW-83" vertex="1">
          <mxGeometry y="109" width="160" height="26" as="geometry" />
        </mxCell>
        <mxCell id="8TV9mCil5T5AzZmrMEOW-89" value="+update()" style="text;align=left;verticalAlign=top;spacingLeft=4;spacingRight=4;overflow=hidden;rotatable=0;points=[[0,0.5],[1,0.5]];portConstraint=eastwest;" parent="8TV9mCil5T5AzZmrMEOW-83" vertex="1">
          <mxGeometry y="135" width="160" height="26" as="geometry" />
        </mxCell>
        <mxCell id="8TV9mCil5T5AzZmrMEOW-90" value="+recieve(Message&amp; m)" style="text;align=left;verticalAlign=top;spacingLeft=4;spacingRight=4;overflow=hidden;rotatable=0;points=[[0,0.5],[1,0.5]];portConstraint=eastwest;" parent="8TV9mCil5T5AzZmrMEOW-83" vertex="1">
          <mxGeometry y="161" width="160" height="26" as="geometry" />
        </mxCell>
        <mxCell id="8TV9mCil5T5AzZmrMEOW-91" value="-onRoundOver()" style="text;align=left;verticalAlign=top;spacingLeft=4;spacingRight=4;overflow=hidden;rotatable=0;points=[[0,0.5],[1,0.5]];portConstraint=eastwest;" parent="8TV9mCil5T5AzZmrMEOW-83" vertex="1">
          <mxGeometry y="187" width="160" height="26" as="geometry" />
        </mxCell>
        <mxCell id="8TV9mCil5T5AzZmrMEOW-92" value="-onRoundStart()" style="text;align=left;verticalAlign=top;spacingLeft=4;spacingRight=4;overflow=hidden;rotatable=0;points=[[0,0.5],[1,0.5]];portConstraint=eastwest;" parent="8TV9mCil5T5AzZmrMEOW-83" vertex="1">
          <mxGeometry y="213" width="160" height="26" as="geometry" />
        </mxCell>
        <mxCell id="8TV9mCil5T5AzZmrMEOW-93" value="-collideswithEnemy()" style="text;align=left;verticalAlign=top;spacingLeft=4;spacingRight=4;overflow=hidden;rotatable=0;points=[[0,0.5],[1,0.5]];portConstraint=eastwest;" parent="8TV9mCil5T5AzZmrMEOW-83" vertex="1">
          <mxGeometry y="239" width="160" height="26" as="geometry" />
        </mxCell>
        <mxCell id="8TV9mCil5T5AzZmrMEOW-106" style="edgeStyle=elbowEdgeStyle;rounded=0;orthogonalLoop=1;jettySize=auto;html=1;entryX=0.5;entryY=1;entryDx=0;entryDy=0;endSize=10;endArrow=block;endFill=0;elbow=vertical;" parent="WIyWlLk6GJQsqaUBKTNV-1" source="8TV9mCil5T5AzZmrMEOW-95" target="zkfFHV4jXpPFQw0GAbJ--0" edge="1">
          <mxGeometry relative="1" as="geometry" />
        </mxCell>
        <mxCell id="8TV9mCil5T5AzZmrMEOW-95" value="TowersSystem" style="swimlane;fontStyle=2;align=center;verticalAlign=top;childLayout=stackLayout;horizontal=1;startSize=30;horizontalStack=0;resizeParent=1;resizeLast=0;collapsible=1;marginBottom=0;rounded=0;shadow=0;strokeWidth=1;" parent="WIyWlLk6GJQsqaUBKTNV-1" vertex="1">
          <mxGeometry x="950" y="360" width="160" height="265" as="geometry">
            <mxRectangle x="220" y="120" width="160" height="26" as="alternateBounds" />
          </mxGeometry>
        </mxCell>
        <mxCell id="8TV9mCil5T5AzZmrMEOW-96" value="+static sysId_type id" style="text;align=left;verticalAlign=top;spacingLeft=4;spacingRight=4;overflow=hidden;rotatable=0;points=[[0,0.5],[1,0.5]];portConstraint=eastwest;container=0;strokeColor=none;" parent="8TV9mCil5T5AzZmrMEOW-95" vertex="1">
          <mxGeometry y="30" width="160" height="26" as="geometry" />
        </mxCell>
        <mxCell id="8TV9mCil5T5AzZmrMEOW-97" value="-Transform* towers[]" style="text;align=left;verticalAlign=top;spacingLeft=4;spacingRight=4;overflow=hidden;rotatable=0;points=[[0,0.5],[1,0.5]];portConstraint=eastwest;container=0;strokeColor=none;" parent="8TV9mCil5T5AzZmrMEOW-95" vertex="1">
          <mxGeometry y="56" width="160" height="26" as="geometry" />
        </mxCell>
        <mxCell id="8TV9mCil5T5AzZmrMEOW-98" value="-bool active_" style="text;align=left;verticalAlign=top;spacingLeft=4;spacingRight=4;overflow=hidden;rotatable=0;points=[[0,0.5],[1,0.5]];portConstraint=eastwest;container=0;strokeColor=none;" parent="8TV9mCil5T5AzZmrMEOW-95" vertex="1">
          <mxGeometry y="82" width="160" height="26" as="geometry" />
        </mxCell>
        <mxCell id="8TV9mCil5T5AzZmrMEOW-99" style="text;align=left;verticalAlign=top;spacingLeft=4;spacingRight=4;overflow=hidden;rotatable=0;points=[[0,0.5],[1,0.5]];portConstraint=eastwest;container=0;strokeColor=default;fontSize=12;" parent="8TV9mCil5T5AzZmrMEOW-95" vertex="1">
          <mxGeometry y="108" width="160" height="1" as="geometry" />
        </mxCell>
        <mxCell id="8TV9mCil5T5AzZmrMEOW-100" value="+initSystem()" style="text;align=left;verticalAlign=top;spacingLeft=4;spacingRight=4;overflow=hidden;rotatable=0;points=[[0,0.5],[1,0.5]];portConstraint=eastwest;" parent="8TV9mCil5T5AzZmrMEOW-95" vertex="1">
          <mxGeometry y="109" width="160" height="26" as="geometry" />
        </mxCell>
        <mxCell id="8TV9mCil5T5AzZmrMEOW-101" value="+update()" style="text;align=left;verticalAlign=top;spacingLeft=4;spacingRight=4;overflow=hidden;rotatable=0;points=[[0,0.5],[1,0.5]];portConstraint=eastwest;" parent="8TV9mCil5T5AzZmrMEOW-95" vertex="1">
          <mxGeometry y="135" width="160" height="26" as="geometry" />
        </mxCell>
        <mxCell id="8TV9mCil5T5AzZmrMEOW-102" value="+recieve(Message&amp; m)" style="text;align=left;verticalAlign=top;spacingLeft=4;spacingRight=4;overflow=hidden;rotatable=0;points=[[0,0.5],[1,0.5]];portConstraint=eastwest;" parent="8TV9mCil5T5AzZmrMEOW-95" vertex="1">
          <mxGeometry y="161" width="160" height="26" as="geometry" />
        </mxCell>
        <mxCell id="8TV9mCil5T5AzZmrMEOW-103" value="-onRoundOver()" style="text;align=left;verticalAlign=top;spacingLeft=4;spacingRight=4;overflow=hidden;rotatable=0;points=[[0,0.5],[1,0.5]];portConstraint=eastwest;" parent="8TV9mCil5T5AzZmrMEOW-95" vertex="1">
          <mxGeometry y="187" width="160" height="26" as="geometry" />
        </mxCell>
        <mxCell id="8TV9mCil5T5AzZmrMEOW-104" value="-onRoundStart()" style="text;align=left;verticalAlign=top;spacingLeft=4;spacingRight=4;overflow=hidden;rotatable=0;points=[[0,0.5],[1,0.5]];portConstraint=eastwest;" parent="8TV9mCil5T5AzZmrMEOW-95" vertex="1">
          <mxGeometry y="213" width="160" height="26" as="geometry" />
        </mxCell>
        <mxCell id="8TV9mCil5T5AzZmrMEOW-105" value="-collideswithEnemy()" style="text;align=left;verticalAlign=top;spacingLeft=4;spacingRight=4;overflow=hidden;rotatable=0;points=[[0,0.5],[1,0.5]];portConstraint=eastwest;" parent="8TV9mCil5T5AzZmrMEOW-95" vertex="1">
          <mxGeometry y="239" width="160" height="26" as="geometry" />
        </mxCell>
        <mxCell id="Eer2En0-CgxTH97DHm9t-0" value="Entity" style="swimlane;fontStyle=2;align=center;verticalAlign=top;childLayout=stackLayout;horizontal=1;startSize=30;horizontalStack=0;resizeParent=1;resizeLast=0;collapsible=1;marginBottom=0;rounded=0;shadow=0;strokeWidth=1;" parent="WIyWlLk6GJQsqaUBKTNV-1" vertex="1">
          <mxGeometry x="3250" y="20" width="270" height="213" as="geometry">
            <mxRectangle x="220" y="120" width="160" height="26" as="alternateBounds" />
          </mxGeometry>
        </mxCell>
        <mxCell id="Eer2En0-CgxTH97DHm9t-1" value="-bool alive_" style="text;align=left;verticalAlign=top;spacingLeft=4;spacingRight=4;overflow=hidden;rotatable=0;points=[[0,0.5],[1,0.5]];portConstraint=eastwest;container=0;strokeColor=none;" parent="Eer2En0-CgxTH97DHm9t-0" vertex="1">
          <mxGeometry y="30" width="270" height="26" as="geometry" />
        </mxCell>
        <mxCell id="Eer2En0-CgxTH97DHm9t-11" value="-vector&lt;Component*&gt; currCmps_&#x9;" style="text;align=left;verticalAlign=top;spacingLeft=4;spacingRight=4;overflow=hidden;rotatable=0;points=[[0,0.5],[1,0.5]];portConstraint=eastwest;container=0;strokeColor=none;" parent="Eer2En0-CgxTH97DHm9t-0" vertex="1">
          <mxGeometry y="56" width="270" height="26" as="geometry" />
        </mxCell>
        <mxCell id="Eer2En0-CgxTH97DHm9t-12" value="-array&lt;Component*, maxComponentId&gt; cmps_" style="text;align=left;verticalAlign=top;spacingLeft=4;spacingRight=4;overflow=hidden;rotatable=0;points=[[0,0.5],[1,0.5]];portConstraint=eastwest;container=0;strokeColor=none;" parent="Eer2En0-CgxTH97DHm9t-0" vertex="1">
          <mxGeometry y="82" width="270" height="26" as="geometry" />
        </mxCell>
        <mxCell id="Eer2En0-CgxTH97DHm9t-13" value="-grpId_type gId_" style="text;align=left;verticalAlign=top;spacingLeft=4;spacingRight=4;overflow=hidden;rotatable=0;points=[[0,0.5],[1,0.5]];portConstraint=eastwest;container=0;strokeColor=none;" parent="Eer2En0-CgxTH97DHm9t-0" vertex="1">
          <mxGeometry y="108" width="270" height="26" as="geometry" />
        </mxCell>
        <mxCell id="Eer2En0-CgxTH97DHm9t-10" style="text;align=left;verticalAlign=top;spacingLeft=4;spacingRight=4;overflow=hidden;rotatable=0;points=[[0,0.5],[1,0.5]];portConstraint=eastwest;container=0;strokeColor=default;" parent="Eer2En0-CgxTH97DHm9t-0" vertex="1">
          <mxGeometry y="134" width="270" height="1" as="geometry" />
        </mxCell>
        <mxCell id="Eer2En0-CgxTH97DHm9t-2" value="+handleInput()" style="text;align=left;verticalAlign=top;spacingLeft=4;spacingRight=4;overflow=hidden;rotatable=0;points=[[0,0.5],[1,0.5]];portConstraint=eastwest;" parent="Eer2En0-CgxTH97DHm9t-0" vertex="1">
          <mxGeometry y="135" width="270" height="26" as="geometry" />
        </mxCell>
        <mxCell id="Eer2En0-CgxTH97DHm9t-3" value="+update()" style="text;align=left;verticalAlign=top;spacingLeft=4;spacingRight=4;overflow=hidden;rotatable=0;points=[[0,0.5],[1,0.5]];portConstraint=eastwest;" parent="Eer2En0-CgxTH97DHm9t-0" vertex="1">
          <mxGeometry y="161" width="270" height="26" as="geometry" />
        </mxCell>
        <mxCell id="Eer2En0-CgxTH97DHm9t-4" value="+render()" style="text;align=left;verticalAlign=top;spacingLeft=4;spacingRight=4;overflow=hidden;rotatable=0;points=[[0,0.5],[1,0.5]];portConstraint=eastwest;" parent="Eer2En0-CgxTH97DHm9t-0" vertex="1">
          <mxGeometry y="187" width="270" height="26" as="geometry" />
        </mxCell>
        <mxCell id="G6Bq0T_JhJ_VnhZVB8g7-20" style="edgeStyle=orthogonalEdgeStyle;rounded=0;orthogonalLoop=1;jettySize=auto;html=1;endArrow=diamondThin;endFill=1;endSize=10;exitX=1.001;exitY=0.046;exitDx=0;exitDy=0;exitPerimeter=0;" parent="WIyWlLk6GJQsqaUBKTNV-1" source="Eer2En0-CgxTH97DHm9t-24" edge="1">
          <mxGeometry relative="1" as="geometry">
            <mxPoint x="3249" y="70" as="targetPoint" />
            <Array as="points">
              <mxPoint x="2840" y="70" />
              <mxPoint x="3249" y="70" />
            </Array>
          </mxGeometry>
        </mxCell>
        <mxCell id="G6Bq0T_JhJ_VnhZVB8g7-83" style="edgeStyle=orthogonalEdgeStyle;rounded=0;orthogonalLoop=1;jettySize=auto;html=1;entryX=0.428;entryY=-0.003;entryDx=0;entryDy=0;entryPerimeter=0;dashed=1;endArrow=open;endFill=0;endSize=10;" parent="WIyWlLk6GJQsqaUBKTNV-1" source="Eer2En0-CgxTH97DHm9t-24" target="G6Bq0T_JhJ_VnhZVB8g7-21" edge="1">
          <mxGeometry relative="1" as="geometry">
            <Array as="points">
              <mxPoint x="1399" y="100" />
            </Array>
          </mxGeometry>
        </mxCell>
        <mxCell id="Eer2En0-CgxTH97DHm9t-24" value="Component" style="swimlane;fontStyle=2;align=center;verticalAlign=top;childLayout=stackLayout;horizontal=1;startSize=30;horizontalStack=0;resizeParent=1;resizeLast=0;collapsible=1;marginBottom=0;rounded=0;shadow=0;strokeWidth=1;" parent="WIyWlLk6GJQsqaUBKTNV-1" vertex="1">
          <mxGeometry x="2570" y="30" width="270" height="213" as="geometry">
            <mxRectangle x="220" y="120" width="160" height="26" as="alternateBounds" />
          </mxGeometry>
        </mxCell>
        <mxCell id="Eer2En0-CgxTH97DHm9t-25" value="-Entity* ent_" style="text;align=left;verticalAlign=top;spacingLeft=4;spacingRight=4;overflow=hidden;rotatable=0;points=[[0,0.5],[1,0.5]];portConstraint=eastwest;container=0;strokeColor=none;" parent="Eer2En0-CgxTH97DHm9t-24" vertex="1">
          <mxGeometry y="30" width="270" height="26" as="geometry" />
        </mxCell>
        <mxCell id="Eer2En0-CgxTH97DHm9t-26" value="-Manager* mgr_" style="text;align=left;verticalAlign=top;spacingLeft=4;spacingRight=4;overflow=hidden;rotatable=0;points=[[0,0.5],[1,0.5]];portConstraint=eastwest;container=0;strokeColor=none;" parent="Eer2En0-CgxTH97DHm9t-24" vertex="1">
          <mxGeometry y="56" width="270" height="26" as="geometry" />
        </mxCell>
        <mxCell id="Eer2En0-CgxTH97DHm9t-29" style="text;align=left;verticalAlign=top;spacingLeft=4;spacingRight=4;overflow=hidden;rotatable=0;points=[[0,0.5],[1,0.5]];portConstraint=eastwest;container=0;strokeColor=default;" parent="Eer2En0-CgxTH97DHm9t-24" vertex="1">
          <mxGeometry y="82" width="270" height="1" as="geometry" />
        </mxCell>
        <mxCell id="Eer2En0-CgxTH97DHm9t-30" value="+handleInput()" style="text;align=left;verticalAlign=top;spacingLeft=4;spacingRight=4;overflow=hidden;rotatable=0;points=[[0,0.5],[1,0.5]];portConstraint=eastwest;" parent="Eer2En0-CgxTH97DHm9t-24" vertex="1">
          <mxGeometry y="83" width="270" height="26" as="geometry" />
        </mxCell>
        <mxCell id="Eer2En0-CgxTH97DHm9t-31" value="+update()" style="text;align=left;verticalAlign=top;spacingLeft=4;spacingRight=4;overflow=hidden;rotatable=0;points=[[0,0.5],[1,0.5]];portConstraint=eastwest;" parent="Eer2En0-CgxTH97DHm9t-24" vertex="1">
          <mxGeometry y="109" width="270" height="26" as="geometry" />
        </mxCell>
        <mxCell id="Eer2En0-CgxTH97DHm9t-32" value="+render()" style="text;align=left;verticalAlign=top;spacingLeft=4;spacingRight=4;overflow=hidden;rotatable=0;points=[[0,0.5],[1,0.5]];portConstraint=eastwest;" parent="Eer2En0-CgxTH97DHm9t-24" vertex="1">
          <mxGeometry y="135" width="270" height="26" as="geometry" />
        </mxCell>
        <mxCell id="Eer2En0-CgxTH97DHm9t-33" value="+initComponent()" style="text;align=left;verticalAlign=top;spacingLeft=4;spacingRight=4;overflow=hidden;rotatable=0;points=[[0,0.5],[1,0.5]];portConstraint=eastwest;" parent="Eer2En0-CgxTH97DHm9t-24" vertex="1">
          <mxGeometry y="161" width="270" height="26" as="geometry" />
        </mxCell>
        <mxCell id="Eer2En0-CgxTH97DHm9t-34" value="+setContext(Entity* ent, Manager* mngr)" style="text;align=left;verticalAlign=top;spacingLeft=4;spacingRight=4;overflow=hidden;rotatable=0;points=[[0,0.5],[1,0.5]];portConstraint=eastwest;" parent="Eer2En0-CgxTH97DHm9t-24" vertex="1">
          <mxGeometry y="187" width="270" height="26" as="geometry" />
        </mxCell>
        <mxCell id="Eer2En0-CgxTH97DHm9t-35" value="TowerDrawAndDrop" style="swimlane;fontStyle=2;align=center;verticalAlign=top;childLayout=stackLayout;horizontal=1;startSize=30;horizontalStack=0;resizeParent=1;resizeLast=0;collapsible=1;marginBottom=0;rounded=0;shadow=0;strokeWidth=1;" parent="WIyWlLk6GJQsqaUBKTNV-1" vertex="1">
          <mxGeometry x="1630" y="310" width="270" height="239" as="geometry">
            <mxRectangle x="220" y="120" width="160" height="26" as="alternateBounds" />
          </mxGeometry>
        </mxCell>
        <mxCell id="Eer2En0-CgxTH97DHm9t-36" value="-Entity* towerIcon" style="text;align=left;verticalAlign=top;spacingLeft=4;spacingRight=4;overflow=hidden;rotatable=0;points=[[0,0.5],[1,0.5]];portConstraint=eastwest;container=0;strokeColor=none;" parent="Eer2En0-CgxTH97DHm9t-35" vertex="1">
          <mxGeometry y="30" width="270" height="26" as="geometry" />
        </mxCell>
        <mxCell id="Eer2En0-CgxTH97DHm9t-38" style="text;align=left;verticalAlign=top;spacingLeft=4;spacingRight=4;overflow=hidden;rotatable=0;points=[[0,0.5],[1,0.5]];portConstraint=eastwest;container=0;strokeColor=default;" parent="Eer2En0-CgxTH97DHm9t-35" vertex="1">
          <mxGeometry y="56" width="270" height="1" as="geometry" />
        </mxCell>
        <mxCell id="Ixgt6Wln41qKN_DeRJrS-24" value="+initComponent()" style="text;align=left;verticalAlign=top;spacingLeft=4;spacingRight=4;overflow=hidden;rotatable=0;points=[[0,0.5],[1,0.5]];portConstraint=eastwest;" vertex="1" parent="Eer2En0-CgxTH97DHm9t-35">
          <mxGeometry y="57" width="270" height="26" as="geometry" />
        </mxCell>
        <mxCell id="Eer2En0-CgxTH97DHm9t-39" value="+handleInput()" style="text;align=left;verticalAlign=top;spacingLeft=4;spacingRight=4;overflow=hidden;rotatable=0;points=[[0,0.5],[1,0.5]];portConstraint=eastwest;" parent="Eer2En0-CgxTH97DHm9t-35" vertex="1">
          <mxGeometry y="83" width="270" height="26" as="geometry" />
        </mxCell>
        <mxCell id="G6Bq0T_JhJ_VnhZVB8g7-141" value="+update()" style="text;align=left;verticalAlign=top;spacingLeft=4;spacingRight=4;overflow=hidden;rotatable=0;points=[[0,0.5],[1,0.5]];portConstraint=eastwest;" parent="Eer2En0-CgxTH97DHm9t-35" vertex="1">
          <mxGeometry y="109" width="270" height="26" as="geometry" />
        </mxCell>
        <mxCell id="Eer2En0-CgxTH97DHm9t-45" value="PlaceTower" style="swimlane;fontStyle=2;align=center;verticalAlign=top;childLayout=stackLayout;horizontal=1;startSize=30;horizontalStack=0;resizeParent=1;resizeLast=0;collapsible=1;marginBottom=0;rounded=0;shadow=0;strokeWidth=1;" parent="WIyWlLk6GJQsqaUBKTNV-1" vertex="1">
          <mxGeometry x="1950" y="310" width="270" height="239" as="geometry">
            <mxRectangle x="220" y="120" width="160" height="26" as="alternateBounds" />
          </mxGeometry>
        </mxCell>
        <mxCell id="Eer2En0-CgxTH97DHm9t-46" value="-towerId id" style="text;align=left;verticalAlign=top;spacingLeft=4;spacingRight=4;overflow=hidden;rotatable=0;points=[[0,0.5],[1,0.5]];portConstraint=eastwest;container=0;strokeColor=none;" parent="Eer2En0-CgxTH97DHm9t-45" vertex="1">
          <mxGeometry y="30" width="270" height="26" as="geometry" />
        </mxCell>
        <mxCell id="Eer2En0-CgxTH97DHm9t-47" style="text;align=left;verticalAlign=top;spacingLeft=4;spacingRight=4;overflow=hidden;rotatable=0;points=[[0,0.5],[1,0.5]];portConstraint=eastwest;container=0;strokeColor=default;" parent="Eer2En0-CgxTH97DHm9t-45" vertex="1">
          <mxGeometry y="56" width="270" height="1" as="geometry" />
        </mxCell>
        <mxCell id="Ixgt6Wln41qKN_DeRJrS-23" value="+initComponent()" style="text;align=left;verticalAlign=top;spacingLeft=4;spacingRight=4;overflow=hidden;rotatable=0;points=[[0,0.5],[1,0.5]];portConstraint=eastwest;" vertex="1" parent="Eer2En0-CgxTH97DHm9t-45">
          <mxGeometry y="57" width="270" height="26" as="geometry" />
        </mxCell>
        <mxCell id="Eer2En0-CgxTH97DHm9t-48" value="+generateTower()" style="text;align=left;verticalAlign=top;spacingLeft=4;spacingRight=4;overflow=hidden;rotatable=0;points=[[0,0.5],[1,0.5]];portConstraint=eastwest;" parent="Eer2En0-CgxTH97DHm9t-45" vertex="1">
          <mxGeometry y="83" width="270" height="26" as="geometry" />
        </mxCell>
        <mxCell id="Eer2En0-CgxTH97DHm9t-49" value="MovementComponent" style="swimlane;fontStyle=2;align=center;verticalAlign=top;childLayout=stackLayout;horizontal=1;startSize=30;horizontalStack=0;resizeParent=1;resizeLast=0;collapsible=1;marginBottom=0;rounded=0;shadow=0;strokeWidth=1;" parent="WIyWlLk6GJQsqaUBKTNV-1" vertex="1">
          <mxGeometry x="2260" y="310" width="270" height="239" as="geometry">
            <mxRectangle x="220" y="120" width="160" height="26" as="alternateBounds" />
          </mxGeometry>
        </mxCell>
        <mxCell id="Eer2En0-CgxTH97DHm9t-50" value="-Transform* transform" style="text;align=left;verticalAlign=top;spacingLeft=4;spacingRight=4;overflow=hidden;rotatable=0;points=[[0,0.5],[1,0.5]];portConstraint=eastwest;container=0;strokeColor=none;" parent="Eer2En0-CgxTH97DHm9t-49" vertex="1">
          <mxGeometry y="30" width="270" height="26" as="geometry" />
        </mxCell>
        <mxCell id="Eer2En0-CgxTH97DHm9t-51" style="text;align=left;verticalAlign=top;spacingLeft=4;spacingRight=4;overflow=hidden;rotatable=0;points=[[0,0.5],[1,0.5]];portConstraint=eastwest;container=0;strokeColor=default;" parent="Eer2En0-CgxTH97DHm9t-49" vertex="1">
          <mxGeometry y="56" width="270" height="1" as="geometry" />
        </mxCell>
        <mxCell id="Ixgt6Wln41qKN_DeRJrS-22" value="+initComponent()" style="text;align=left;verticalAlign=top;spacingLeft=4;spacingRight=4;overflow=hidden;rotatable=0;points=[[0,0.5],[1,0.5]];portConstraint=eastwest;" vertex="1" parent="Eer2En0-CgxTH97DHm9t-49">
          <mxGeometry y="57" width="270" height="26" as="geometry" />
        </mxCell>
        <mxCell id="Eer2En0-CgxTH97DHm9t-52" value="+moveTo(Vector2 destino)" style="text;align=left;verticalAlign=top;spacingLeft=4;spacingRight=4;overflow=hidden;rotatable=0;points=[[0,0.5],[1,0.5]];portConstraint=eastwest;" parent="Eer2En0-CgxTH97DHm9t-49" vertex="1">
          <mxGeometry y="83" width="270" height="26" as="geometry" />
        </mxCell>
        <mxCell id="G6Bq0T_JhJ_VnhZVB8g7-137" value="+rotate(float rotation)" style="text;align=left;verticalAlign=top;spacingLeft=4;spacingRight=4;overflow=hidden;rotatable=0;points=[[0,0.5],[1,0.5]];portConstraint=eastwest;" parent="Eer2En0-CgxTH97DHm9t-49" vertex="1">
          <mxGeometry y="109" width="270" height="26" as="geometry" />
        </mxCell>
        <mxCell id="G6Bq0T_JhJ_VnhZVB8g7-138" value="+update()" style="text;align=left;verticalAlign=top;spacingLeft=4;spacingRight=4;overflow=hidden;rotatable=0;points=[[0,0.5],[1,0.5]];portConstraint=eastwest;" parent="Eer2En0-CgxTH97DHm9t-49" vertex="1">
          <mxGeometry y="135" width="270" height="26" as="geometry" />
        </mxCell>
        <mxCell id="Eer2En0-CgxTH97DHm9t-53" value="Transform" style="swimlane;fontStyle=2;align=center;verticalAlign=top;childLayout=stackLayout;horizontal=1;startSize=30;horizontalStack=0;resizeParent=1;resizeLast=0;collapsible=1;marginBottom=0;rounded=0;shadow=0;strokeWidth=1;" parent="WIyWlLk6GJQsqaUBKTNV-1" vertex="1">
          <mxGeometry x="2570" y="310" width="270" height="759" as="geometry">
            <mxRectangle x="220" y="120" width="160" height="26" as="alternateBounds" />
          </mxGeometry>
        </mxCell>
        <mxCell id="Eer2En0-CgxTH97DHm9t-54" value="-Vector2D* position" style="text;align=left;verticalAlign=top;spacingLeft=4;spacingRight=4;overflow=hidden;rotatable=0;points=[[0,0.5],[1,0.5]];portConstraint=eastwest;container=0;strokeColor=none;" parent="Eer2En0-CgxTH97DHm9t-53" vertex="1">
          <mxGeometry y="30" width="270" height="26" as="geometry" />
        </mxCell>
        <mxCell id="G6Bq0T_JhJ_VnhZVB8g7-84" value="-float rotation" style="text;align=left;verticalAlign=top;spacingLeft=4;spacingRight=4;overflow=hidden;rotatable=0;points=[[0,0.5],[1,0.5]];portConstraint=eastwest;container=0;strokeColor=none;" parent="Eer2En0-CgxTH97DHm9t-53" vertex="1">
          <mxGeometry y="56" width="270" height="26" as="geometry" />
        </mxCell>
        <mxCell id="G6Bq0T_JhJ_VnhZVB8g7-85" value="-Vector2D* scale" style="text;align=left;verticalAlign=top;spacingLeft=4;spacingRight=4;overflow=hidden;rotatable=0;points=[[0,0.5],[1,0.5]];portConstraint=eastwest;container=0;strokeColor=none;" parent="Eer2En0-CgxTH97DHm9t-53" vertex="1">
          <mxGeometry y="82" width="270" height="26" as="geometry" />
        </mxCell>
        <mxCell id="G6Bq0T_JhJ_VnhZVB8g7-86" value="-Vector2D* velocity" style="text;align=left;verticalAlign=top;spacingLeft=4;spacingRight=4;overflow=hidden;rotatable=0;points=[[0,0.5],[1,0.5]];portConstraint=eastwest;container=0;strokeColor=none;" parent="Eer2En0-CgxTH97DHm9t-53" vertex="1">
          <mxGeometry y="108" width="270" height="26" as="geometry" />
        </mxCell>
        <mxCell id="G6Bq0T_JhJ_VnhZVB8g7-117" value="+static cmpId id" style="text;align=left;verticalAlign=top;spacingLeft=4;spacingRight=4;overflow=hidden;rotatable=0;points=[[0,0.5],[1,0.5]];portConstraint=eastwest;container=0;strokeColor=none;" parent="Eer2En0-CgxTH97DHm9t-53" vertex="1">
          <mxGeometry y="134" width="270" height="26" as="geometry" />
        </mxCell>
        <mxCell id="Eer2En0-CgxTH97DHm9t-55" style="text;align=left;verticalAlign=top;spacingLeft=4;spacingRight=4;overflow=hidden;rotatable=0;points=[[0,0.5],[1,0.5]];portConstraint=eastwest;container=0;strokeColor=default;" parent="Eer2En0-CgxTH97DHm9t-53" vertex="1">
          <mxGeometry y="160" width="270" height="1" as="geometry" />
        </mxCell>
        <mxCell id="Eer2En0-CgxTH97DHm9t-56" value="+Vector2D* getPosition()" style="text;align=left;verticalAlign=top;spacingLeft=4;spacingRight=4;overflow=hidden;rotatable=0;points=[[0,0.5],[1,0.5]];portConstraint=eastwest;" parent="Eer2En0-CgxTH97DHm9t-53" vertex="1">
          <mxGeometry y="161" width="270" height="26" as="geometry" />
        </mxCell>
        <mxCell id="G6Bq0T_JhJ_VnhZVB8g7-87" value="+float getRotation()" style="text;align=left;verticalAlign=top;spacingLeft=4;spacingRight=4;overflow=hidden;rotatable=0;points=[[0,0.5],[1,0.5]];portConstraint=eastwest;" parent="Eer2En0-CgxTH97DHm9t-53" vertex="1">
          <mxGeometry y="187" width="270" height="26" as="geometry" />
        </mxCell>
        <mxCell id="G6Bq0T_JhJ_VnhZVB8g7-88" value="+Vector2D* getScale()" style="text;align=left;verticalAlign=top;spacingLeft=4;spacingRight=4;overflow=hidden;rotatable=0;points=[[0,0.5],[1,0.5]];portConstraint=eastwest;" parent="Eer2En0-CgxTH97DHm9t-53" vertex="1">
          <mxGeometry y="213" width="270" height="26" as="geometry" />
        </mxCell>
        <mxCell id="G6Bq0T_JhJ_VnhZVB8g7-89" value="+Vector2D* getVelocity()" style="text;align=left;verticalAlign=top;spacingLeft=4;spacingRight=4;overflow=hidden;rotatable=0;points=[[0,0.5],[1,0.5]];portConstraint=eastwest;" parent="Eer2En0-CgxTH97DHm9t-53" vertex="1">
          <mxGeometry y="239" width="270" height="26" as="geometry" />
        </mxCell>
        <mxCell id="G6Bq0T_JhJ_VnhZVB8g7-90" value="+float getX()" style="text;align=left;verticalAlign=top;spacingLeft=4;spacingRight=4;overflow=hidden;rotatable=0;points=[[0,0.5],[1,0.5]];portConstraint=eastwest;" parent="Eer2En0-CgxTH97DHm9t-53" vertex="1">
          <mxGeometry y="265" width="270" height="26" as="geometry" />
        </mxCell>
        <mxCell id="G6Bq0T_JhJ_VnhZVB8g7-91" value="+float getY()" style="text;align=left;verticalAlign=top;spacingLeft=4;spacingRight=4;overflow=hidden;rotatable=0;points=[[0,0.5],[1,0.5]];portConstraint=eastwest;" parent="Eer2En0-CgxTH97DHm9t-53" vertex="1">
          <mxGeometry y="291" width="270" height="26" as="geometry" />
        </mxCell>
        <mxCell id="G6Bq0T_JhJ_VnhZVB8g7-92" value="+getWidth()" style="text;align=left;verticalAlign=top;spacingLeft=4;spacingRight=4;overflow=hidden;rotatable=0;points=[[0,0.5],[1,0.5]];portConstraint=eastwest;" parent="Eer2En0-CgxTH97DHm9t-53" vertex="1">
          <mxGeometry y="317" width="270" height="26" as="geometry" />
        </mxCell>
        <mxCell id="G6Bq0T_JhJ_VnhZVB8g7-93" value="+getHeight()" style="text;align=left;verticalAlign=top;spacingLeft=4;spacingRight=4;overflow=hidden;rotatable=0;points=[[0,0.5],[1,0.5]];portConstraint=eastwest;" parent="Eer2En0-CgxTH97DHm9t-53" vertex="1">
          <mxGeometry y="343" width="270" height="26" as="geometry" />
        </mxCell>
        <mxCell id="G6Bq0T_JhJ_VnhZVB8g7-94" value="+getVelX()" style="text;align=left;verticalAlign=top;spacingLeft=4;spacingRight=4;overflow=hidden;rotatable=0;points=[[0,0.5],[1,0.5]];portConstraint=eastwest;" parent="Eer2En0-CgxTH97DHm9t-53" vertex="1">
          <mxGeometry y="369" width="270" height="26" as="geometry" />
        </mxCell>
        <mxCell id="G6Bq0T_JhJ_VnhZVB8g7-95" value="+getVelY()" style="text;align=left;verticalAlign=top;spacingLeft=4;spacingRight=4;overflow=hidden;rotatable=0;points=[[0,0.5],[1,0.5]];portConstraint=eastwest;" parent="Eer2En0-CgxTH97DHm9t-53" vertex="1">
          <mxGeometry y="395" width="270" height="26" as="geometry" />
        </mxCell>
        <mxCell id="G6Bq0T_JhJ_VnhZVB8g7-96" value="+SDL_Rect getRect()" style="text;align=left;verticalAlign=top;spacingLeft=4;spacingRight=4;overflow=hidden;rotatable=0;points=[[0,0.5],[1,0.5]];portConstraint=eastwest;" parent="Eer2En0-CgxTH97DHm9t-53" vertex="1">
          <mxGeometry y="421" width="270" height="26" as="geometry" />
        </mxCell>
        <mxCell id="G6Bq0T_JhJ_VnhZVB8g7-97" value="+setPosition(const Vector2D&amp; p)" style="text;align=left;verticalAlign=top;spacingLeft=4;spacingRight=4;overflow=hidden;rotatable=0;points=[[0,0.5],[1,0.5]];portConstraint=eastwest;" parent="Eer2En0-CgxTH97DHm9t-53" vertex="1">
          <mxGeometry y="447" width="270" height="26" as="geometry" />
        </mxCell>
        <mxCell id="G6Bq0T_JhJ_VnhZVB8g7-98" value="+setRotation(float r)" style="text;align=left;verticalAlign=top;spacingLeft=4;spacingRight=4;overflow=hidden;rotatable=0;points=[[0,0.5],[1,0.5]];portConstraint=eastwest;" parent="Eer2En0-CgxTH97DHm9t-53" vertex="1">
          <mxGeometry y="473" width="270" height="26" as="geometry" />
        </mxCell>
        <mxCell id="G6Bq0T_JhJ_VnhZVB8g7-99" value="+setScale(const Vector2D&amp; s)" style="text;align=left;verticalAlign=top;spacingLeft=4;spacingRight=4;overflow=hidden;rotatable=0;points=[[0,0.5],[1,0.5]];portConstraint=eastwest;" parent="Eer2En0-CgxTH97DHm9t-53" vertex="1">
          <mxGeometry y="499" width="270" height="26" as="geometry" />
        </mxCell>
        <mxCell id="G6Bq0T_JhJ_VnhZVB8g7-100" value="+setVelocity(const Vector2D&amp; v)" style="text;align=left;verticalAlign=top;spacingLeft=4;spacingRight=4;overflow=hidden;rotatable=0;points=[[0,0.5],[1,0.5]];portConstraint=eastwest;" parent="Eer2En0-CgxTH97DHm9t-53" vertex="1">
          <mxGeometry y="525" width="270" height="26" as="geometry" />
        </mxCell>
        <mxCell id="G6Bq0T_JhJ_VnhZVB8g7-101" value="+setX(float x)" style="text;align=left;verticalAlign=top;spacingLeft=4;spacingRight=4;overflow=hidden;rotatable=0;points=[[0,0.5],[1,0.5]];portConstraint=eastwest;" parent="Eer2En0-CgxTH97DHm9t-53" vertex="1">
          <mxGeometry y="551" width="270" height="26" as="geometry" />
        </mxCell>
        <mxCell id="G6Bq0T_JhJ_VnhZVB8g7-102" value="+setY(float y)" style="text;align=left;verticalAlign=top;spacingLeft=4;spacingRight=4;overflow=hidden;rotatable=0;points=[[0,0.5],[1,0.5]];portConstraint=eastwest;" parent="Eer2En0-CgxTH97DHm9t-53" vertex="1">
          <mxGeometry y="577" width="270" height="26" as="geometry" />
        </mxCell>
        <mxCell id="G6Bq0T_JhJ_VnhZVB8g7-103" value="+setWidth(float w)" style="text;align=left;verticalAlign=top;spacingLeft=4;spacingRight=4;overflow=hidden;rotatable=0;points=[[0,0.5],[1,0.5]];portConstraint=eastwest;" parent="Eer2En0-CgxTH97DHm9t-53" vertex="1">
          <mxGeometry y="603" width="270" height="26" as="geometry" />
        </mxCell>
        <mxCell id="G6Bq0T_JhJ_VnhZVB8g7-104" value="+setHeight(float h)" style="text;align=left;verticalAlign=top;spacingLeft=4;spacingRight=4;overflow=hidden;rotatable=0;points=[[0,0.5],[1,0.5]];portConstraint=eastwest;" parent="Eer2En0-CgxTH97DHm9t-53" vertex="1">
          <mxGeometry y="629" width="270" height="26" as="geometry" />
        </mxCell>
        <mxCell id="G6Bq0T_JhJ_VnhZVB8g7-105" value="+setVelX(float velx)" style="text;align=left;verticalAlign=top;spacingLeft=4;spacingRight=4;overflow=hidden;rotatable=0;points=[[0,0.5],[1,0.5]];portConstraint=eastwest;" parent="Eer2En0-CgxTH97DHm9t-53" vertex="1">
          <mxGeometry y="655" width="270" height="26" as="geometry" />
        </mxCell>
        <mxCell id="G6Bq0T_JhJ_VnhZVB8g7-106" value="+setVelY(float vely)" style="text;align=left;verticalAlign=top;spacingLeft=4;spacingRight=4;overflow=hidden;rotatable=0;points=[[0,0.5],[1,0.5]];portConstraint=eastwest;" parent="Eer2En0-CgxTH97DHm9t-53" vertex="1">
          <mxGeometry y="681" width="270" height="26" as="geometry" />
        </mxCell>
        <mxCell id="G6Bq0T_JhJ_VnhZVB8g7-107" value="+addRotation(float rot)" style="text;align=left;verticalAlign=top;spacingLeft=4;spacingRight=4;overflow=hidden;rotatable=0;points=[[0,0.5],[1,0.5]];portConstraint=eastwest;" parent="Eer2En0-CgxTH97DHm9t-53" vertex="1">
          <mxGeometry y="707" width="270" height="26" as="geometry" />
        </mxCell>
        <mxCell id="G6Bq0T_JhJ_VnhZVB8g7-108" value="+translate()" style="text;align=left;verticalAlign=top;spacingLeft=4;spacingRight=4;overflow=hidden;rotatable=0;points=[[0,0.5],[1,0.5]];portConstraint=eastwest;" parent="Eer2En0-CgxTH97DHm9t-53" vertex="1">
          <mxGeometry y="733" width="270" height="26" as="geometry" />
        </mxCell>
        <mxCell id="Eer2En0-CgxTH97DHm9t-57" value="FramedImage" style="swimlane;fontStyle=2;align=center;verticalAlign=top;childLayout=stackLayout;horizontal=1;startSize=30;horizontalStack=0;resizeParent=1;resizeLast=0;collapsible=1;marginBottom=0;rounded=0;shadow=0;strokeWidth=1;" parent="WIyWlLk6GJQsqaUBKTNV-1" vertex="1">
          <mxGeometry x="2880" y="310" width="270" height="343" as="geometry">
            <mxRectangle x="220" y="120" width="160" height="26" as="alternateBounds" />
          </mxGeometry>
        </mxCell>
        <mxCell id="Eer2En0-CgxTH97DHm9t-58" value="-int currentFrame" style="text;align=left;verticalAlign=top;spacingLeft=4;spacingRight=4;overflow=hidden;rotatable=0;points=[[0,0.5],[1,0.5]];portConstraint=eastwest;container=0;strokeColor=none;" parent="Eer2En0-CgxTH97DHm9t-57" vertex="1">
          <mxGeometry y="30" width="270" height="26" as="geometry" />
        </mxCell>
        <mxCell id="G6Bq0T_JhJ_VnhZVB8g7-109" value="-float startTime" style="text;align=left;verticalAlign=top;spacingLeft=4;spacingRight=4;overflow=hidden;rotatable=0;points=[[0,0.5],[1,0.5]];portConstraint=eastwest;container=0;strokeColor=none;" parent="Eer2En0-CgxTH97DHm9t-57" vertex="1">
          <mxGeometry y="56" width="270" height="26" as="geometry" />
        </mxCell>
        <mxCell id="G6Bq0T_JhJ_VnhZVB8g7-110" value="-float currentTime" style="text;align=left;verticalAlign=top;spacingLeft=4;spacingRight=4;overflow=hidden;rotatable=0;points=[[0,0.5],[1,0.5]];portConstraint=eastwest;container=0;strokeColor=none;" parent="Eer2En0-CgxTH97DHm9t-57" vertex="1">
          <mxGeometry y="82" width="270" height="26" as="geometry" />
        </mxCell>
        <mxCell id="G6Bq0T_JhJ_VnhZVB8g7-111" value="-int frameRate" style="text;align=left;verticalAlign=top;spacingLeft=4;spacingRight=4;overflow=hidden;rotatable=0;points=[[0,0.5],[1,0.5]];portConstraint=eastwest;container=0;strokeColor=none;" parent="Eer2En0-CgxTH97DHm9t-57" vertex="1">
          <mxGeometry y="108" width="270" height="26" as="geometry" />
        </mxCell>
        <mxCell id="G6Bq0T_JhJ_VnhZVB8g7-112" value="-int frameColumns" style="text;align=left;verticalAlign=top;spacingLeft=4;spacingRight=4;overflow=hidden;rotatable=0;points=[[0,0.5],[1,0.5]];portConstraint=eastwest;container=0;strokeColor=none;" parent="Eer2En0-CgxTH97DHm9t-57" vertex="1">
          <mxGeometry y="134" width="270" height="26" as="geometry" />
        </mxCell>
        <mxCell id="G6Bq0T_JhJ_VnhZVB8g7-113" value="-int frameRows" style="text;align=left;verticalAlign=top;spacingLeft=4;spacingRight=4;overflow=hidden;rotatable=0;points=[[0,0.5],[1,0.5]];portConstraint=eastwest;container=0;strokeColor=none;" parent="Eer2En0-CgxTH97DHm9t-57" vertex="1">
          <mxGeometry y="160" width="270" height="26" as="geometry" />
        </mxCell>
        <mxCell id="G6Bq0T_JhJ_VnhZVB8g7-114" value="-int frameWidth" style="text;align=left;verticalAlign=top;spacingLeft=4;spacingRight=4;overflow=hidden;rotatable=0;points=[[0,0.5],[1,0.5]];portConstraint=eastwest;container=0;strokeColor=none;" parent="Eer2En0-CgxTH97DHm9t-57" vertex="1">
          <mxGeometry y="186" width="270" height="26" as="geometry" />
        </mxCell>
        <mxCell id="G6Bq0T_JhJ_VnhZVB8g7-115" value="-int frameHeight" style="text;align=left;verticalAlign=top;spacingLeft=4;spacingRight=4;overflow=hidden;rotatable=0;points=[[0,0.5],[1,0.5]];portConstraint=eastwest;container=0;strokeColor=none;" parent="Eer2En0-CgxTH97DHm9t-57" vertex="1">
          <mxGeometry y="212" width="270" height="26" as="geometry" />
        </mxCell>
        <mxCell id="G6Bq0T_JhJ_VnhZVB8g7-118" value="+static cmpId id" style="text;align=left;verticalAlign=top;spacingLeft=4;spacingRight=4;overflow=hidden;rotatable=0;points=[[0,0.5],[1,0.5]];portConstraint=eastwest;container=0;strokeColor=none;" parent="Eer2En0-CgxTH97DHm9t-57" vertex="1">
          <mxGeometry y="238" width="270" height="26" as="geometry" />
        </mxCell>
        <mxCell id="Eer2En0-CgxTH97DHm9t-59" style="text;align=left;verticalAlign=top;spacingLeft=4;spacingRight=4;overflow=hidden;rotatable=0;points=[[0,0.5],[1,0.5]];portConstraint=eastwest;container=0;strokeColor=default;" parent="Eer2En0-CgxTH97DHm9t-57" vertex="1">
          <mxGeometry y="264" width="270" height="1" as="geometry" />
        </mxCell>
        <mxCell id="G6Bq0T_JhJ_VnhZVB8g7-136" value="+initComponent()" style="text;align=left;verticalAlign=top;spacingLeft=4;spacingRight=4;overflow=hidden;rotatable=0;points=[[0,0.5],[1,0.5]];portConstraint=eastwest;" parent="Eer2En0-CgxTH97DHm9t-57" vertex="1">
          <mxGeometry y="265" width="270" height="26" as="geometry" />
        </mxCell>
        <mxCell id="Eer2En0-CgxTH97DHm9t-60" value="+updateCurrentFrame()" style="text;align=left;verticalAlign=top;spacingLeft=4;spacingRight=4;overflow=hidden;rotatable=0;points=[[0,0.5],[1,0.5]];portConstraint=eastwest;" parent="Eer2En0-CgxTH97DHm9t-57" vertex="1">
          <mxGeometry y="291" width="270" height="26" as="geometry" />
        </mxCell>
        <mxCell id="G6Bq0T_JhJ_VnhZVB8g7-116" value="+SDL_Rect getSrcRect()" style="text;align=left;verticalAlign=top;spacingLeft=4;spacingRight=4;overflow=hidden;rotatable=0;points=[[0,0.5],[1,0.5]];portConstraint=eastwest;" parent="Eer2En0-CgxTH97DHm9t-57" vertex="1">
          <mxGeometry y="317" width="270" height="26" as="geometry" />
        </mxCell>
        <mxCell id="Eer2En0-CgxTH97DHm9t-103" style="edgeStyle=elbowEdgeStyle;rounded=0;orthogonalLoop=1;jettySize=auto;html=1;entryX=0.49;entryY=1.013;entryDx=0;entryDy=0;entryPerimeter=0;endArrow=block;endFill=0;endSize=10;elbow=vertical;" parent="WIyWlLk6GJQsqaUBKTNV-1" source="Eer2En0-CgxTH97DHm9t-65" target="Eer2En0-CgxTH97DHm9t-34" edge="1">
          <mxGeometry relative="1" as="geometry">
            <Array as="points">
              <mxPoint x="3010" y="276" />
            </Array>
          </mxGeometry>
        </mxCell>
        <mxCell id="Eer2En0-CgxTH97DHm9t-65" value="HealthComponent" style="swimlane;fontStyle=2;align=center;verticalAlign=top;childLayout=stackLayout;horizontal=1;startSize=30;horizontalStack=0;resizeParent=1;resizeLast=0;collapsible=1;marginBottom=0;rounded=0;shadow=0;strokeWidth=1;" parent="WIyWlLk6GJQsqaUBKTNV-1" vertex="1">
          <mxGeometry x="3220" y="310" width="270" height="291" as="geometry">
            <mxRectangle x="220" y="120" width="160" height="26" as="alternateBounds" />
          </mxGeometry>
        </mxCell>
        <mxCell id="Eer2En0-CgxTH97DHm9t-66" value="-float Health" style="text;align=left;verticalAlign=top;spacingLeft=4;spacingRight=4;overflow=hidden;rotatable=0;points=[[0,0.5],[1,0.5]];portConstraint=eastwest;container=0;strokeColor=none;" parent="Eer2En0-CgxTH97DHm9t-65" vertex="1">
          <mxGeometry y="30" width="270" height="26" as="geometry" />
        </mxCell>
        <mxCell id="G6Bq0T_JhJ_VnhZVB8g7-120" value="-Entity*  healthBar" style="text;align=left;verticalAlign=top;spacingLeft=4;spacingRight=4;overflow=hidden;rotatable=0;points=[[0,0.5],[1,0.5]];portConstraint=eastwest;container=0;strokeColor=none;" parent="Eer2En0-CgxTH97DHm9t-65" vertex="1">
          <mxGeometry y="56" width="270" height="26" as="geometry" />
        </mxCell>
        <mxCell id="G6Bq0T_JhJ_VnhZVB8g7-119" value="+static cmpId id" style="text;align=left;verticalAlign=top;spacingLeft=4;spacingRight=4;overflow=hidden;rotatable=0;points=[[0,0.5],[1,0.5]];portConstraint=eastwest;container=0;strokeColor=none;" parent="Eer2En0-CgxTH97DHm9t-65" vertex="1">
          <mxGeometry y="82" width="270" height="26" as="geometry" />
        </mxCell>
        <mxCell id="Eer2En0-CgxTH97DHm9t-67" style="text;align=left;verticalAlign=top;spacingLeft=4;spacingRight=4;overflow=hidden;rotatable=0;points=[[0,0.5],[1,0.5]];portConstraint=eastwest;container=0;strokeColor=default;" parent="Eer2En0-CgxTH97DHm9t-65" vertex="1">
          <mxGeometry y="108" width="270" height="1" as="geometry" />
        </mxCell>
        <mxCell id="G6Bq0T_JhJ_VnhZVB8g7-134" value="+initComponent()" style="text;align=left;verticalAlign=top;spacingLeft=4;spacingRight=4;overflow=hidden;rotatable=0;points=[[0,0.5],[1,0.5]];portConstraint=eastwest;" parent="Eer2En0-CgxTH97DHm9t-65" vertex="1">
          <mxGeometry y="109" width="270" height="26" as="geometry" />
        </mxCell>
        <mxCell id="Eer2En0-CgxTH97DHm9t-68" value="+float getHealth()" style="text;align=left;verticalAlign=top;spacingLeft=4;spacingRight=4;overflow=hidden;rotatable=0;points=[[0,0.5],[1,0.5]];portConstraint=eastwest;" parent="Eer2En0-CgxTH97DHm9t-65" vertex="1">
          <mxGeometry y="135" width="270" height="26" as="geometry" />
        </mxCell>
        <mxCell id="G6Bq0T_JhJ_VnhZVB8g7-128" value="+setHealth(float health)" style="text;align=left;verticalAlign=top;spacingLeft=4;spacingRight=4;overflow=hidden;rotatable=0;points=[[0,0.5],[1,0.5]];portConstraint=eastwest;" parent="Eer2En0-CgxTH97DHm9t-65" vertex="1">
          <mxGeometry y="161" width="270" height="26" as="geometry" />
        </mxCell>
        <mxCell id="G6Bq0T_JhJ_VnhZVB8g7-121" value="+subtract()" style="text;align=left;verticalAlign=top;spacingLeft=4;spacingRight=4;overflow=hidden;rotatable=0;points=[[0,0.5],[1,0.5]];portConstraint=eastwest;" parent="Eer2En0-CgxTH97DHm9t-65" vertex="1">
          <mxGeometry y="187" width="270" height="26" as="geometry" />
        </mxCell>
        <mxCell id="G6Bq0T_JhJ_VnhZVB8g7-124" value="+add(float)" style="text;align=left;verticalAlign=top;spacingLeft=4;spacingRight=4;overflow=hidden;rotatable=0;points=[[0,0.5],[1,0.5]];portConstraint=eastwest;" parent="Eer2En0-CgxTH97DHm9t-65" vertex="1">
          <mxGeometry y="213" width="270" height="26" as="geometry" />
        </mxCell>
        <mxCell id="G6Bq0T_JhJ_VnhZVB8g7-122" value="+reset()" style="text;align=left;verticalAlign=top;spacingLeft=4;spacingRight=4;overflow=hidden;rotatable=0;points=[[0,0.5],[1,0.5]];portConstraint=eastwest;" parent="Eer2En0-CgxTH97DHm9t-65" vertex="1">
          <mxGeometry y="239" width="270" height="26" as="geometry" />
        </mxCell>
        <mxCell id="G6Bq0T_JhJ_VnhZVB8g7-123" value="+Entity* getHealthBar()" style="text;align=left;verticalAlign=top;spacingLeft=4;spacingRight=4;overflow=hidden;rotatable=0;points=[[0,0.5],[1,0.5]];portConstraint=eastwest;" parent="Eer2En0-CgxTH97DHm9t-65" vertex="1">
          <mxGeometry y="265" width="270" height="26" as="geometry" />
        </mxCell>
        <mxCell id="Eer2En0-CgxTH97DHm9t-104" style="edgeStyle=orthogonalEdgeStyle;rounded=0;orthogonalLoop=1;jettySize=auto;html=1;entryX=0.49;entryY=1.013;entryDx=0;entryDy=0;entryPerimeter=0;endSize=10;endArrow=block;endFill=0;" parent="WIyWlLk6GJQsqaUBKTNV-1" source="Eer2En0-CgxTH97DHm9t-69" target="Eer2En0-CgxTH97DHm9t-34" edge="1">
          <mxGeometry relative="1" as="geometry">
            <mxPoint x="2660" y="170" as="targetPoint" />
            <Array as="points">
              <mxPoint x="3675" y="280" />
              <mxPoint x="2702" y="280" />
            </Array>
          </mxGeometry>
        </mxCell>
        <mxCell id="Eer2En0-CgxTH97DHm9t-69" value="AttackComponent" style="swimlane;fontStyle=2;align=center;verticalAlign=top;childLayout=stackLayout;horizontal=1;startSize=30;horizontalStack=0;resizeParent=1;resizeLast=0;collapsible=1;marginBottom=0;rounded=0;shadow=0;strokeWidth=1;" parent="WIyWlLk6GJQsqaUBKTNV-1" vertex="1">
          <mxGeometry x="3530" y="310" width="270" height="343" as="geometry">
            <mxRectangle x="220" y="120" width="160" height="26" as="alternateBounds" />
          </mxGeometry>
        </mxCell>
        <mxCell id="Eer2En0-CgxTH97DHm9t-70" value="-float damage" style="text;align=left;verticalAlign=top;spacingLeft=4;spacingRight=4;overflow=hidden;rotatable=0;points=[[0,0.5],[1,0.5]];portConstraint=eastwest;container=0;strokeColor=none;" parent="Eer2En0-CgxTH97DHm9t-69" vertex="1">
          <mxGeometry y="30" width="270" height="26" as="geometry" />
        </mxCell>
        <mxCell id="G6Bq0T_JhJ_VnhZVB8g7-126" value="-float range" style="text;align=left;verticalAlign=top;spacingLeft=4;spacingRight=4;overflow=hidden;rotatable=0;points=[[0,0.5],[1,0.5]];portConstraint=eastwest;container=0;strokeColor=none;" parent="Eer2En0-CgxTH97DHm9t-69" vertex="1">
          <mxGeometry y="56" width="270" height="26" as="geometry" />
        </mxCell>
        <mxCell id="Ixgt6Wln41qKN_DeRJrS-29" value="-bool shootBullets" style="text;align=left;verticalAlign=top;spacingLeft=4;spacingRight=4;overflow=hidden;rotatable=0;points=[[0,0.5],[1,0.5]];portConstraint=eastwest;container=0;strokeColor=none;" vertex="1" parent="Eer2En0-CgxTH97DHm9t-69">
          <mxGeometry y="82" width="270" height="26" as="geometry" />
        </mxCell>
        <mxCell id="G6Bq0T_JhJ_VnhZVB8g7-125" value="+static cmpId id" style="text;align=left;verticalAlign=top;spacingLeft=4;spacingRight=4;overflow=hidden;rotatable=0;points=[[0,0.5],[1,0.5]];portConstraint=eastwest;container=0;strokeColor=none;" parent="Eer2En0-CgxTH97DHm9t-69" vertex="1">
          <mxGeometry y="108" width="270" height="26" as="geometry" />
        </mxCell>
        <mxCell id="Eer2En0-CgxTH97DHm9t-71" style="text;align=left;verticalAlign=top;spacingLeft=4;spacingRight=4;overflow=hidden;rotatable=0;points=[[0,0.5],[1,0.5]];portConstraint=eastwest;container=0;strokeColor=default;" parent="Eer2En0-CgxTH97DHm9t-69" vertex="1">
          <mxGeometry y="134" width="270" height="1" as="geometry" />
        </mxCell>
        <mxCell id="G6Bq0T_JhJ_VnhZVB8g7-135" value="+initComponent()" style="text;align=left;verticalAlign=top;spacingLeft=4;spacingRight=4;overflow=hidden;rotatable=0;points=[[0,0.5],[1,0.5]];portConstraint=eastwest;" parent="Eer2En0-CgxTH97DHm9t-69" vertex="1">
          <mxGeometry y="135" width="270" height="26" as="geometry" />
        </mxCell>
        <mxCell id="Eer2En0-CgxTH97DHm9t-72" value="+float getDamage()" style="text;align=left;verticalAlign=top;spacingLeft=4;spacingRight=4;overflow=hidden;rotatable=0;points=[[0,0.5],[1,0.5]];portConstraint=eastwest;" parent="Eer2En0-CgxTH97DHm9t-69" vertex="1">
          <mxGeometry y="161" width="270" height="26" as="geometry" />
        </mxCell>
        <mxCell id="G6Bq0T_JhJ_VnhZVB8g7-127" value="+float getRange()" style="text;align=left;verticalAlign=top;spacingLeft=4;spacingRight=4;overflow=hidden;rotatable=0;points=[[0,0.5],[1,0.5]];portConstraint=eastwest;" parent="Eer2En0-CgxTH97DHm9t-69" vertex="1">
          <mxGeometry y="187" width="270" height="26" as="geometry" />
        </mxCell>
        <mxCell id="G6Bq0T_JhJ_VnhZVB8g7-129" value="+setDamage(float damage)" style="text;align=left;verticalAlign=top;spacingLeft=4;spacingRight=4;overflow=hidden;rotatable=0;points=[[0,0.5],[1,0.5]];portConstraint=eastwest;" parent="Eer2En0-CgxTH97DHm9t-69" vertex="1">
          <mxGeometry y="213" width="270" height="26" as="geometry" />
        </mxCell>
        <mxCell id="G6Bq0T_JhJ_VnhZVB8g7-130" value="+setRange(float range)" style="text;align=left;verticalAlign=top;spacingLeft=4;spacingRight=4;overflow=hidden;rotatable=0;points=[[0,0.5],[1,0.5]];portConstraint=eastwest;" parent="Eer2En0-CgxTH97DHm9t-69" vertex="1">
          <mxGeometry y="239" width="270" height="26" as="geometry" />
        </mxCell>
        <mxCell id="G6Bq0T_JhJ_VnhZVB8g7-132" value="+doDamageTo(HealthComponent* healthcmp)" style="text;align=left;verticalAlign=top;spacingLeft=4;spacingRight=4;overflow=hidden;rotatable=0;points=[[0,0.5],[1,0.5]];portConstraint=eastwest;" parent="Eer2En0-CgxTH97DHm9t-69" vertex="1">
          <mxGeometry y="265" width="270" height="26" as="geometry" />
        </mxCell>
        <mxCell id="Ixgt6Wln41qKN_DeRJrS-39" value="+shootBullet()" style="text;align=left;verticalAlign=top;spacingLeft=4;spacingRight=4;overflow=hidden;rotatable=0;points=[[0,0.5],[1,0.5]];portConstraint=eastwest;" vertex="1" parent="Eer2En0-CgxTH97DHm9t-69">
          <mxGeometry y="291" width="270" height="26" as="geometry" />
        </mxCell>
        <mxCell id="G6Bq0T_JhJ_VnhZVB8g7-133" value="+update()" style="text;align=left;verticalAlign=top;spacingLeft=4;spacingRight=4;overflow=hidden;rotatable=0;points=[[0,0.5],[1,0.5]];portConstraint=eastwest;" parent="Eer2En0-CgxTH97DHm9t-69" vertex="1">
          <mxGeometry y="317" width="270" height="26" as="geometry" />
        </mxCell>
        <mxCell id="Eer2En0-CgxTH97DHm9t-105" style="edgeStyle=orthogonalEdgeStyle;rounded=0;orthogonalLoop=1;jettySize=auto;html=1;entryX=0.49;entryY=1.031;entryDx=0;entryDy=0;entryPerimeter=0;endSize=10;endArrow=block;endFill=0;elbow=vertical;" parent="WIyWlLk6GJQsqaUBKTNV-1" source="Eer2En0-CgxTH97DHm9t-91" target="Eer2En0-CgxTH97DHm9t-34" edge="1">
          <mxGeometry relative="1" as="geometry">
            <mxPoint x="2240" y="280" as="targetPoint" />
            <Array as="points">
              <mxPoint x="2085" y="600" />
              <mxPoint x="1930" y="600" />
              <mxPoint x="1930" y="280" />
              <mxPoint x="2702" y="280" />
            </Array>
          </mxGeometry>
        </mxCell>
        <mxCell id="Eer2En0-CgxTH97DHm9t-91" value="HabilityComponent" style="swimlane;fontStyle=2;align=center;verticalAlign=top;childLayout=stackLayout;horizontal=1;startSize=30;horizontalStack=0;resizeParent=1;resizeLast=0;collapsible=1;marginBottom=0;rounded=0;shadow=0;strokeWidth=1;" parent="WIyWlLk6GJQsqaUBKTNV-1" vertex="1">
          <mxGeometry x="1950" y="640" width="270" height="239" as="geometry">
            <mxRectangle x="220" y="120" width="160" height="26" as="alternateBounds" />
          </mxGeometry>
        </mxCell>
        <mxCell id="Eer2En0-CgxTH97DHm9t-92" value="-habilityId id" style="text;align=left;verticalAlign=top;spacingLeft=4;spacingRight=4;overflow=hidden;rotatable=0;points=[[0,0.5],[1,0.5]];portConstraint=eastwest;container=0;strokeColor=none;" parent="Eer2En0-CgxTH97DHm9t-91" vertex="1">
          <mxGeometry y="30" width="270" height="26" as="geometry" />
        </mxCell>
        <mxCell id="Eer2En0-CgxTH97DHm9t-93" style="text;align=left;verticalAlign=top;spacingLeft=4;spacingRight=4;overflow=hidden;rotatable=0;points=[[0,0.5],[1,0.5]];portConstraint=eastwest;container=0;strokeColor=default;" parent="Eer2En0-CgxTH97DHm9t-91" vertex="1">
          <mxGeometry y="56" width="270" height="1" as="geometry" />
        </mxCell>
        <mxCell id="Eer2En0-CgxTH97DHm9t-94" value="+useHability()" style="text;align=left;verticalAlign=top;spacingLeft=4;spacingRight=4;overflow=hidden;rotatable=0;points=[[0,0.5],[1,0.5]];portConstraint=eastwest;" parent="Eer2En0-CgxTH97DHm9t-91" vertex="1">
          <mxGeometry y="57" width="270" height="26" as="geometry" />
        </mxCell>
        <mxCell id="Eer2En0-CgxTH97DHm9t-95" style="edgeStyle=elbowEdgeStyle;rounded=0;orthogonalLoop=1;jettySize=auto;html=1;exitX=0.5;exitY=0;exitDx=0;exitDy=0;entryX=0.49;entryY=1.042;entryDx=0;entryDy=0;entryPerimeter=0;endArrow=block;endFill=0;endSize=10;elbow=vertical;" parent="WIyWlLk6GJQsqaUBKTNV-1" source="Eer2En0-CgxTH97DHm9t-35" target="Eer2En0-CgxTH97DHm9t-34" edge="1">
          <mxGeometry relative="1" as="geometry" />
        </mxCell>
        <mxCell id="Eer2En0-CgxTH97DHm9t-96" style="edgeStyle=elbowEdgeStyle;rounded=0;orthogonalLoop=1;jettySize=auto;html=1;exitX=0.5;exitY=0;exitDx=0;exitDy=0;endArrow=block;endFill=0;endSize=10;entryX=0.489;entryY=1.05;entryDx=0;entryDy=0;entryPerimeter=0;elbow=vertical;" parent="WIyWlLk6GJQsqaUBKTNV-1" source="Eer2En0-CgxTH97DHm9t-45" target="Eer2En0-CgxTH97DHm9t-34" edge="1">
          <mxGeometry relative="1" as="geometry">
            <mxPoint x="1775" y="320" as="sourcePoint" />
            <mxPoint x="2710" y="250" as="targetPoint" />
          </mxGeometry>
        </mxCell>
        <mxCell id="Eer2En0-CgxTH97DHm9t-100" style="edgeStyle=elbowEdgeStyle;rounded=0;orthogonalLoop=1;jettySize=auto;html=1;entryX=0.489;entryY=1.046;entryDx=0;entryDy=0;entryPerimeter=0;elbow=vertical;endArrow=block;endFill=0;endSize=10;" parent="WIyWlLk6GJQsqaUBKTNV-1" source="Eer2En0-CgxTH97DHm9t-53" target="Eer2En0-CgxTH97DHm9t-34" edge="1">
          <mxGeometry relative="1" as="geometry" />
        </mxCell>
        <mxCell id="Eer2En0-CgxTH97DHm9t-101" style="edgeStyle=elbowEdgeStyle;rounded=0;orthogonalLoop=1;jettySize=auto;html=1;entryX=0.491;entryY=1.049;entryDx=0;entryDy=0;entryPerimeter=0;endArrow=block;endFill=0;endSize=10;elbow=vertical;" parent="WIyWlLk6GJQsqaUBKTNV-1" source="Eer2En0-CgxTH97DHm9t-57" target="Eer2En0-CgxTH97DHm9t-34" edge="1">
          <mxGeometry relative="1" as="geometry">
            <Array as="points" />
          </mxGeometry>
        </mxCell>
        <mxCell id="G6Bq0T_JhJ_VnhZVB8g7-82" style="edgeStyle=orthogonalEdgeStyle;rounded=0;orthogonalLoop=1;jettySize=auto;html=1;entryX=1.011;entryY=0.025;entryDx=0;entryDy=0;entryPerimeter=0;dashed=1;endArrow=open;endFill=0;endSize=10;" parent="WIyWlLk6GJQsqaUBKTNV-1" source="tNHuECoPzC32i3_CKyrl-0" target="G6Bq0T_JhJ_VnhZVB8g7-21" edge="1">
          <mxGeometry relative="1" as="geometry">
            <Array as="points">
              <mxPoint x="2505" y="1240" />
              <mxPoint x="1990" y="1240" />
              <mxPoint x="1990" y="1038" />
            </Array>
          </mxGeometry>
        </mxCell>
        <mxCell id="tNHuECoPzC32i3_CKyrl-0" value="GameState" style="swimlane;fontStyle=2;align=center;verticalAlign=top;childLayout=stackLayout;horizontal=1;startSize=30;horizontalStack=0;resizeParent=1;resizeLast=0;collapsible=1;marginBottom=0;rounded=0;shadow=0;strokeWidth=1;" parent="WIyWlLk6GJQsqaUBKTNV-1" vertex="1">
          <mxGeometry x="2370" y="1288" width="270" height="239" as="geometry">
            <mxRectangle x="220" y="120" width="160" height="26" as="alternateBounds" />
          </mxGeometry>
        </mxCell>
        <mxCell id="tNHuECoPzC32i3_CKyrl-1" value="-Manager* mngr_" style="text;align=left;verticalAlign=top;spacingLeft=4;spacingRight=4;overflow=hidden;rotatable=0;points=[[0,0.5],[1,0.5]];portConstraint=eastwest;container=0;strokeColor=none;" parent="tNHuECoPzC32i3_CKyrl-0" vertex="1">
          <mxGeometry y="30" width="270" height="26" as="geometry" />
        </mxCell>
        <mxCell id="tNHuECoPzC32i3_CKyrl-4" value="+gmSttId_type id" style="text;align=left;verticalAlign=top;spacingLeft=4;spacingRight=4;overflow=hidden;rotatable=0;points=[[0,0.5],[1,0.5]];portConstraint=eastwest;container=0;strokeColor=none;" parent="tNHuECoPzC32i3_CKyrl-0" vertex="1">
          <mxGeometry y="56" width="270" height="26" as="geometry" />
        </mxCell>
        <mxCell id="tNHuECoPzC32i3_CKyrl-2" style="text;align=left;verticalAlign=top;spacingLeft=4;spacingRight=4;overflow=hidden;rotatable=0;points=[[0,0.5],[1,0.5]];portConstraint=eastwest;container=0;strokeColor=default;" parent="tNHuECoPzC32i3_CKyrl-0" vertex="1">
          <mxGeometry y="82" width="270" height="1" as="geometry" />
        </mxCell>
        <mxCell id="tNHuECoPzC32i3_CKyrl-3" value="+update()" style="text;align=left;verticalAlign=top;spacingLeft=4;spacingRight=4;overflow=hidden;rotatable=0;points=[[0,0.5],[1,0.5]];portConstraint=eastwest;" parent="tNHuECoPzC32i3_CKyrl-0" vertex="1">
          <mxGeometry y="83" width="270" height="26" as="geometry" />
        </mxCell>
        <mxCell id="tNHuECoPzC32i3_CKyrl-5" value="+render()" style="text;align=left;verticalAlign=top;spacingLeft=4;spacingRight=4;overflow=hidden;rotatable=0;points=[[0,0.5],[1,0.5]];portConstraint=eastwest;" parent="tNHuECoPzC32i3_CKyrl-0" vertex="1">
          <mxGeometry y="109" width="270" height="26" as="geometry" />
        </mxCell>
        <mxCell id="tNHuECoPzC32i3_CKyrl-6" value="+handleInput()" style="text;align=left;verticalAlign=top;spacingLeft=4;spacingRight=4;overflow=hidden;rotatable=0;points=[[0,0.5],[1,0.5]];portConstraint=eastwest;" parent="tNHuECoPzC32i3_CKyrl-0" vertex="1">
          <mxGeometry y="135" width="270" height="26" as="geometry" />
        </mxCell>
        <mxCell id="tNHuECoPzC32i3_CKyrl-7" value="+refresh()" style="text;align=left;verticalAlign=top;spacingLeft=4;spacingRight=4;overflow=hidden;rotatable=0;points=[[0,0.5],[1,0.5]];portConstraint=eastwest;" parent="tNHuECoPzC32i3_CKyrl-0" vertex="1">
          <mxGeometry y="161" width="270" height="26" as="geometry" />
        </mxCell>
        <mxCell id="tNHuECoPzC32i3_CKyrl-8" value="+send(Message&amp; m, bool delay = false)" style="text;align=left;verticalAlign=top;spacingLeft=4;spacingRight=4;overflow=hidden;rotatable=0;points=[[0,0.5],[1,0.5]];portConstraint=eastwest;" parent="tNHuECoPzC32i3_CKyrl-0" vertex="1">
          <mxGeometry y="187" width="270" height="26" as="geometry" />
        </mxCell>
        <mxCell id="G6Bq0T_JhJ_VnhZVB8g7-2" style="edgeStyle=orthogonalEdgeStyle;rounded=0;orthogonalLoop=1;jettySize=auto;html=1;entryX=0.5;entryY=1;entryDx=0;entryDy=0;endArrow=block;endFill=0;endSize=10;" parent="WIyWlLk6GJQsqaUBKTNV-1" source="tNHuECoPzC32i3_CKyrl-9" target="tNHuECoPzC32i3_CKyrl-0" edge="1">
          <mxGeometry relative="1" as="geometry">
            <Array as="points">
              <mxPoint x="2085" y="1578" />
              <mxPoint x="2505" y="1578" />
            </Array>
          </mxGeometry>
        </mxCell>
        <mxCell id="tNHuECoPzC32i3_CKyrl-9" value="MainMenuState" style="swimlane;fontStyle=2;align=center;verticalAlign=top;childLayout=stackLayout;horizontal=1;startSize=30;horizontalStack=0;resizeParent=1;resizeLast=0;collapsible=1;marginBottom=0;rounded=0;shadow=0;strokeWidth=1;" parent="WIyWlLk6GJQsqaUBKTNV-1" vertex="1">
          <mxGeometry x="1960" y="1638" width="270" height="82" as="geometry">
            <mxRectangle x="220" y="120" width="160" height="26" as="alternateBounds" />
          </mxGeometry>
        </mxCell>
        <mxCell id="tNHuECoPzC32i3_CKyrl-12" style="text;align=left;verticalAlign=top;spacingLeft=4;spacingRight=4;overflow=hidden;rotatable=0;points=[[0,0.5],[1,0.5]];portConstraint=eastwest;container=0;strokeColor=default;" parent="tNHuECoPzC32i3_CKyrl-9" vertex="1">
          <mxGeometry y="30" width="270" height="1" as="geometry" />
        </mxCell>
        <mxCell id="tNHuECoPzC32i3_CKyrl-14" value="+handleInput()" style="text;align=left;verticalAlign=top;spacingLeft=4;spacingRight=4;overflow=hidden;rotatable=0;points=[[0,0.5],[1,0.5]];portConstraint=eastwest;" parent="tNHuECoPzC32i3_CKyrl-9" vertex="1">
          <mxGeometry y="31" width="270" height="26" as="geometry" />
        </mxCell>
        <mxCell id="G6Bq0T_JhJ_VnhZVB8g7-3" style="edgeStyle=orthogonalEdgeStyle;rounded=0;orthogonalLoop=1;jettySize=auto;html=1;entryX=0.5;entryY=1;entryDx=0;entryDy=0;endArrow=block;endFill=0;endSize=10;" parent="WIyWlLk6GJQsqaUBKTNV-1" source="tNHuECoPzC32i3_CKyrl-18" target="tNHuECoPzC32i3_CKyrl-0" edge="1">
          <mxGeometry relative="1" as="geometry" />
        </mxCell>
        <mxCell id="tNHuECoPzC32i3_CKyrl-18" value="PlayState" style="swimlane;fontStyle=2;align=center;verticalAlign=top;childLayout=stackLayout;horizontal=1;startSize=30;horizontalStack=0;resizeParent=1;resizeLast=0;collapsible=1;marginBottom=0;rounded=0;shadow=0;strokeWidth=1;" parent="WIyWlLk6GJQsqaUBKTNV-1" vertex="1">
          <mxGeometry x="2270" y="1638" width="270" height="92" as="geometry">
            <mxRectangle x="220" y="120" width="160" height="26" as="alternateBounds" />
          </mxGeometry>
        </mxCell>
        <mxCell id="tNHuECoPzC32i3_CKyrl-19" style="text;align=left;verticalAlign=top;spacingLeft=4;spacingRight=4;overflow=hidden;rotatable=0;points=[[0,0.5],[1,0.5]];portConstraint=eastwest;container=0;strokeColor=default;" parent="tNHuECoPzC32i3_CKyrl-18" vertex="1">
          <mxGeometry y="30" width="270" height="1" as="geometry" />
        </mxCell>
        <mxCell id="tNHuECoPzC32i3_CKyrl-20" value="+update()" style="text;align=left;verticalAlign=top;spacingLeft=4;spacingRight=4;overflow=hidden;rotatable=0;points=[[0,0.5],[1,0.5]];portConstraint=eastwest;" parent="tNHuECoPzC32i3_CKyrl-18" vertex="1">
          <mxGeometry y="31" width="270" height="26" as="geometry" />
        </mxCell>
        <mxCell id="tNHuECoPzC32i3_CKyrl-21" value="+handleInput()" style="text;align=left;verticalAlign=top;spacingLeft=4;spacingRight=4;overflow=hidden;rotatable=0;points=[[0,0.5],[1,0.5]];portConstraint=eastwest;" parent="tNHuECoPzC32i3_CKyrl-18" vertex="1">
          <mxGeometry y="57" width="270" height="26" as="geometry" />
        </mxCell>
        <mxCell id="G6Bq0T_JhJ_VnhZVB8g7-4" style="edgeStyle=orthogonalEdgeStyle;rounded=0;orthogonalLoop=1;jettySize=auto;html=1;entryX=0.5;entryY=1;entryDx=0;entryDy=0;endArrow=block;endFill=0;endSize=10;" parent="WIyWlLk6GJQsqaUBKTNV-1" source="tNHuECoPzC32i3_CKyrl-22" target="tNHuECoPzC32i3_CKyrl-0" edge="1">
          <mxGeometry relative="1" as="geometry" />
        </mxCell>
        <mxCell id="tNHuECoPzC32i3_CKyrl-22" value="GameOverState" style="swimlane;fontStyle=2;align=center;verticalAlign=top;childLayout=stackLayout;horizontal=1;startSize=30;horizontalStack=0;resizeParent=1;resizeLast=0;collapsible=1;marginBottom=0;rounded=0;shadow=0;strokeWidth=1;" parent="WIyWlLk6GJQsqaUBKTNV-1" vertex="1">
          <mxGeometry x="2600" y="1638" width="270" height="62" as="geometry">
            <mxRectangle x="220" y="120" width="160" height="26" as="alternateBounds" />
          </mxGeometry>
        </mxCell>
        <mxCell id="tNHuECoPzC32i3_CKyrl-23" style="text;align=left;verticalAlign=top;spacingLeft=4;spacingRight=4;overflow=hidden;rotatable=0;points=[[0,0.5],[1,0.5]];portConstraint=eastwest;container=0;strokeColor=default;" parent="tNHuECoPzC32i3_CKyrl-22" vertex="1">
          <mxGeometry y="30" width="270" height="1" as="geometry" />
        </mxCell>
        <mxCell id="tNHuECoPzC32i3_CKyrl-25" value="+handleInput()" style="text;align=left;verticalAlign=top;spacingLeft=4;spacingRight=4;overflow=hidden;rotatable=0;points=[[0,0.5],[1,0.5]];portConstraint=eastwest;" parent="tNHuECoPzC32i3_CKyrl-22" vertex="1">
          <mxGeometry y="31" width="270" height="26" as="geometry" />
        </mxCell>
        <mxCell id="tNHuECoPzC32i3_CKyrl-26" value="GameStateMachine" style="swimlane;fontStyle=2;align=center;verticalAlign=top;childLayout=stackLayout;horizontal=1;startSize=30;horizontalStack=0;resizeParent=1;resizeLast=0;collapsible=1;marginBottom=0;rounded=0;shadow=0;strokeWidth=1;" parent="WIyWlLk6GJQsqaUBKTNV-1" vertex="1">
          <mxGeometry x="2990" y="1210" width="270" height="317" as="geometry">
            <mxRectangle x="220" y="120" width="160" height="26" as="alternateBounds" />
          </mxGeometry>
        </mxCell>
        <mxCell id="tNHuECoPzC32i3_CKyrl-27" value="-list&lt;GameState*&gt; gameStates" style="text;align=left;verticalAlign=top;spacingLeft=4;spacingRight=4;overflow=hidden;rotatable=0;points=[[0,0.5],[1,0.5]];portConstraint=eastwest;container=0;strokeColor=none;" parent="tNHuECoPzC32i3_CKyrl-26" vertex="1">
          <mxGeometry y="30" width="270" height="26" as="geometry" />
        </mxCell>
        <mxCell id="tNHuECoPzC32i3_CKyrl-28" value="-list&lt;GameState*&gt; gameStates" style="text;align=left;verticalAlign=top;spacingLeft=4;spacingRight=4;overflow=hidden;rotatable=0;points=[[0,0.5],[1,0.5]];portConstraint=eastwest;container=0;strokeColor=none;" parent="tNHuECoPzC32i3_CKyrl-26" vertex="1">
          <mxGeometry y="56" width="270" height="26" as="geometry" />
        </mxCell>
        <mxCell id="tNHuECoPzC32i3_CKyrl-29" style="text;align=left;verticalAlign=top;spacingLeft=4;spacingRight=4;overflow=hidden;rotatable=0;points=[[0,0.5],[1,0.5]];portConstraint=eastwest;container=0;strokeColor=default;" parent="tNHuECoPzC32i3_CKyrl-26" vertex="1">
          <mxGeometry y="82" width="270" height="1" as="geometry" />
        </mxCell>
        <mxCell id="tNHuECoPzC32i3_CKyrl-30" value="+pushState(GameState* newState)" style="text;align=left;verticalAlign=top;spacingLeft=4;spacingRight=4;overflow=hidden;rotatable=0;points=[[0,0.5],[1,0.5]];portConstraint=eastwest;" parent="tNHuECoPzC32i3_CKyrl-26" vertex="1">
          <mxGeometry y="83" width="270" height="26" as="geometry" />
        </mxCell>
        <mxCell id="tNHuECoPzC32i3_CKyrl-31" value="+popState()" style="text;align=left;verticalAlign=top;spacingLeft=4;spacingRight=4;overflow=hidden;rotatable=0;points=[[0,0.5],[1,0.5]];portConstraint=eastwest;" parent="tNHuECoPzC32i3_CKyrl-26" vertex="1">
          <mxGeometry y="109" width="270" height="26" as="geometry" />
        </mxCell>
        <mxCell id="tNHuECoPzC32i3_CKyrl-32" value="+clearStates()" style="text;align=left;verticalAlign=top;spacingLeft=4;spacingRight=4;overflow=hidden;rotatable=0;points=[[0,0.5],[1,0.5]];portConstraint=eastwest;" parent="tNHuECoPzC32i3_CKyrl-26" vertex="1">
          <mxGeometry y="135" width="270" height="26" as="geometry" />
        </mxCell>
        <mxCell id="tNHuECoPzC32i3_CKyrl-33" value="+GameState* currentState()" style="text;align=left;verticalAlign=top;spacingLeft=4;spacingRight=4;overflow=hidden;rotatable=0;points=[[0,0.5],[1,0.5]];portConstraint=eastwest;" parent="tNHuECoPzC32i3_CKyrl-26" vertex="1">
          <mxGeometry y="161" width="270" height="26" as="geometry" />
        </mxCell>
        <mxCell id="tNHuECoPzC32i3_CKyrl-34" value="+changeState(GameState* newState)" style="text;align=left;verticalAlign=top;spacingLeft=4;spacingRight=4;overflow=hidden;rotatable=0;points=[[0,0.5],[1,0.5]];portConstraint=eastwest;" parent="tNHuECoPzC32i3_CKyrl-26" vertex="1">
          <mxGeometry y="187" width="270" height="26" as="geometry" />
        </mxCell>
        <mxCell id="tNHuECoPzC32i3_CKyrl-35" value="+clearStateToErase()" style="text;align=left;verticalAlign=top;spacingLeft=4;spacingRight=4;overflow=hidden;rotatable=0;points=[[0,0.5],[1,0.5]];portConstraint=eastwest;" parent="tNHuECoPzC32i3_CKyrl-26" vertex="1">
          <mxGeometry y="213" width="270" height="26" as="geometry" />
        </mxCell>
        <mxCell id="tNHuECoPzC32i3_CKyrl-36" value="+hadleInput()" style="text;align=left;verticalAlign=top;spacingLeft=4;spacingRight=4;overflow=hidden;rotatable=0;points=[[0,0.5],[1,0.5]];portConstraint=eastwest;" parent="tNHuECoPzC32i3_CKyrl-26" vertex="1">
          <mxGeometry y="239" width="270" height="26" as="geometry" />
        </mxCell>
        <mxCell id="tNHuECoPzC32i3_CKyrl-37" value="+update()" style="text;align=left;verticalAlign=top;spacingLeft=4;spacingRight=4;overflow=hidden;rotatable=0;points=[[0,0.5],[1,0.5]];portConstraint=eastwest;" parent="tNHuECoPzC32i3_CKyrl-26" vertex="1">
          <mxGeometry y="265" width="270" height="26" as="geometry" />
        </mxCell>
        <mxCell id="tNHuECoPzC32i3_CKyrl-38" value="+render()" style="text;align=left;verticalAlign=top;spacingLeft=4;spacingRight=4;overflow=hidden;rotatable=0;points=[[0,0.5],[1,0.5]];portConstraint=eastwest;" parent="tNHuECoPzC32i3_CKyrl-26" vertex="1">
          <mxGeometry y="291" width="270" height="26" as="geometry" />
        </mxCell>
        <mxCell id="G6Bq0T_JhJ_VnhZVB8g7-1" style="edgeStyle=orthogonalEdgeStyle;rounded=0;orthogonalLoop=1;jettySize=auto;html=1;entryX=-0.004;entryY=1.084;entryDx=0;entryDy=0;endArrow=diamondThin;endFill=1;endSize=10;entryPerimeter=0;" parent="WIyWlLk6GJQsqaUBKTNV-1" source="tNHuECoPzC32i3_CKyrl-1" target="tNHuECoPzC32i3_CKyrl-27" edge="1">
          <mxGeometry relative="1" as="geometry" />
        </mxCell>
        <mxCell id="G6Bq0T_JhJ_VnhZVB8g7-9" style="edgeStyle=orthogonalEdgeStyle;rounded=0;orthogonalLoop=1;jettySize=auto;html=1;entryX=0.5;entryY=1;entryDx=0;entryDy=0;endArrow=block;endFill=0;endSize=10;" parent="WIyWlLk6GJQsqaUBKTNV-1" source="G6Bq0T_JhJ_VnhZVB8g7-5" target="tNHuECoPzC32i3_CKyrl-0" edge="1">
          <mxGeometry relative="1" as="geometry">
            <Array as="points">
              <mxPoint x="3055" y="1578" />
              <mxPoint x="2505" y="1578" />
            </Array>
          </mxGeometry>
        </mxCell>
        <mxCell id="G6Bq0T_JhJ_VnhZVB8g7-5" value="PauseState" style="swimlane;fontStyle=2;align=center;verticalAlign=top;childLayout=stackLayout;horizontal=1;startSize=30;horizontalStack=0;resizeParent=1;resizeLast=0;collapsible=1;marginBottom=0;rounded=0;shadow=0;strokeWidth=1;" parent="WIyWlLk6GJQsqaUBKTNV-1" vertex="1">
          <mxGeometry x="2920" y="1638" width="270" height="62" as="geometry">
            <mxRectangle x="220" y="120" width="160" height="26" as="alternateBounds" />
          </mxGeometry>
        </mxCell>
        <mxCell id="G6Bq0T_JhJ_VnhZVB8g7-6" style="text;align=left;verticalAlign=top;spacingLeft=4;spacingRight=4;overflow=hidden;rotatable=0;points=[[0,0.5],[1,0.5]];portConstraint=eastwest;container=0;strokeColor=default;" parent="G6Bq0T_JhJ_VnhZVB8g7-5" vertex="1">
          <mxGeometry y="30" width="270" height="1" as="geometry" />
        </mxCell>
        <mxCell id="G6Bq0T_JhJ_VnhZVB8g7-8" value="+handleInput()" style="text;align=left;verticalAlign=top;spacingLeft=4;spacingRight=4;overflow=hidden;rotatable=0;points=[[0,0.5],[1,0.5]];portConstraint=eastwest;" parent="G6Bq0T_JhJ_VnhZVB8g7-5" vertex="1">
          <mxGeometry y="31" width="270" height="26" as="geometry" />
        </mxCell>
        <mxCell id="G6Bq0T_JhJ_VnhZVB8g7-21" value="Manager" style="swimlane;fontStyle=2;align=center;verticalAlign=top;childLayout=stackLayout;horizontal=1;startSize=30;horizontalStack=0;resizeParent=1;resizeLast=0;collapsible=1;marginBottom=0;rounded=0;shadow=0;strokeWidth=1;" parent="WIyWlLk6GJQsqaUBKTNV-1" vertex="1">
          <mxGeometry x="1241" y="1020" width="369" height="707" as="geometry">
            <mxRectangle x="220" y="120" width="160" height="26" as="alternateBounds" />
          </mxGeometry>
        </mxCell>
        <mxCell id="G6Bq0T_JhJ_VnhZVB8g7-22" value="-array&lt;vector&lt;Entity*&gt;, maxGroupId&gt; entsByGroup_" style="text;align=left;verticalAlign=top;spacingLeft=4;spacingRight=4;overflow=hidden;rotatable=0;points=[[0,0.5],[1,0.5]];portConstraint=eastwest;container=0;strokeColor=none;" parent="G6Bq0T_JhJ_VnhZVB8g7-21" vertex="1">
          <mxGeometry y="30" width="369" height="26" as="geometry" />
        </mxCell>
        <mxCell id="G6Bq0T_JhJ_VnhZVB8g7-23" value="-array&lt;Entity*, maxHdlrId&gt; hdlrs_&#x9;" style="text;align=left;verticalAlign=top;spacingLeft=4;spacingRight=4;overflow=hidden;rotatable=0;points=[[0,0.5],[1,0.5]];portConstraint=eastwest;container=0;strokeColor=none;" parent="G6Bq0T_JhJ_VnhZVB8g7-21" vertex="1">
          <mxGeometry y="56" width="369" height="26" as="geometry" />
        </mxCell>
        <mxCell id="G6Bq0T_JhJ_VnhZVB8g7-24" value="-array&lt;System*, maxSystemId&gt; sys_" style="text;align=left;verticalAlign=top;spacingLeft=4;spacingRight=4;overflow=hidden;rotatable=0;points=[[0,0.5],[1,0.5]];portConstraint=eastwest;container=0;strokeColor=none;" parent="G6Bq0T_JhJ_VnhZVB8g7-21" vertex="1">
          <mxGeometry y="82" width="369" height="26" as="geometry" />
        </mxCell>
        <mxCell id="G6Bq0T_JhJ_VnhZVB8g7-25" value="-vector&lt;Message&gt; msgs_" style="text;align=left;verticalAlign=top;spacingLeft=4;spacingRight=4;overflow=hidden;rotatable=0;points=[[0,0.5],[1,0.5]];portConstraint=eastwest;container=0;strokeColor=none;" parent="G6Bq0T_JhJ_VnhZVB8g7-21" vertex="1">
          <mxGeometry y="108" width="369" height="26" as="geometry" />
        </mxCell>
        <mxCell id="G6Bq0T_JhJ_VnhZVB8g7-30" value="-vector&lt;Message&gt; aux_msgs_" style="text;align=left;verticalAlign=top;spacingLeft=4;spacingRight=4;overflow=hidden;rotatable=0;points=[[0,0.5],[1,0.5]];portConstraint=eastwest;container=0;strokeColor=none;" parent="G6Bq0T_JhJ_VnhZVB8g7-21" vertex="1">
          <mxGeometry y="134" width="369" height="26" as="geometry" />
        </mxCell>
        <mxCell id="G6Bq0T_JhJ_VnhZVB8g7-26" style="text;align=left;verticalAlign=top;spacingLeft=4;spacingRight=4;overflow=hidden;rotatable=0;points=[[0,0.5],[1,0.5]];portConstraint=eastwest;container=0;strokeColor=default;" parent="G6Bq0T_JhJ_VnhZVB8g7-21" vertex="1">
          <mxGeometry y="160" width="369" height="1" as="geometry" />
        </mxCell>
        <mxCell id="G6Bq0T_JhJ_VnhZVB8g7-31" value="+Entity* addEntity(grpId_type gId = _grp_GENERAL)" style="text;align=left;verticalAlign=top;spacingLeft=4;spacingRight=4;overflow=hidden;rotatable=0;points=[[0,0.5],[1,0.5]];portConstraint=eastwest;" parent="G6Bq0T_JhJ_VnhZVB8g7-21" vertex="1">
          <mxGeometry y="161" width="369" height="26" as="geometry" />
        </mxCell>
        <mxCell id="G6Bq0T_JhJ_VnhZVB8g7-32" value="+refresh()" style="text;align=left;verticalAlign=top;spacingLeft=4;spacingRight=4;overflow=hidden;rotatable=0;points=[[0,0.5],[1,0.5]];portConstraint=eastwest;" parent="G6Bq0T_JhJ_VnhZVB8g7-21" vertex="1">
          <mxGeometry y="187" width="369" height="26" as="geometry" />
        </mxCell>
        <mxCell id="G6Bq0T_JhJ_VnhZVB8g7-27" value="+handleInput()" style="text;align=left;verticalAlign=top;spacingLeft=4;spacingRight=4;overflow=hidden;rotatable=0;points=[[0,0.5],[1,0.5]];portConstraint=eastwest;" parent="G6Bq0T_JhJ_VnhZVB8g7-21" vertex="1">
          <mxGeometry y="213" width="369" height="26" as="geometry" />
        </mxCell>
        <mxCell id="G6Bq0T_JhJ_VnhZVB8g7-28" value="+update()" style="text;align=left;verticalAlign=top;spacingLeft=4;spacingRight=4;overflow=hidden;rotatable=0;points=[[0,0.5],[1,0.5]];portConstraint=eastwest;" parent="G6Bq0T_JhJ_VnhZVB8g7-21" vertex="1">
          <mxGeometry y="239" width="369" height="26" as="geometry" />
        </mxCell>
        <mxCell id="G6Bq0T_JhJ_VnhZVB8g7-29" value="+render()" style="text;align=left;verticalAlign=top;spacingLeft=4;spacingRight=4;overflow=hidden;rotatable=0;points=[[0,0.5],[1,0.5]];portConstraint=eastwest;" parent="G6Bq0T_JhJ_VnhZVB8g7-21" vertex="1">
          <mxGeometry y="265" width="369" height="26" as="geometry" />
        </mxCell>
        <mxCell id="G6Bq0T_JhJ_VnhZVB8g7-33" value="+setHandler(hdlrId_type hId, Entity* e)" style="text;align=left;verticalAlign=top;spacingLeft=4;spacingRight=4;overflow=hidden;rotatable=0;points=[[0,0.5],[1,0.5]];portConstraint=eastwest;" parent="G6Bq0T_JhJ_VnhZVB8g7-21" vertex="1">
          <mxGeometry y="291" width="369" height="26" as="geometry" />
        </mxCell>
        <mxCell id="G6Bq0T_JhJ_VnhZVB8g7-34" value="+Entity* getHandler(hdlrId_type hId)" style="text;align=left;verticalAlign=top;spacingLeft=4;spacingRight=4;overflow=hidden;rotatable=0;points=[[0,0.5],[1,0.5]];portConstraint=eastwest;" parent="G6Bq0T_JhJ_VnhZVB8g7-21" vertex="1">
          <mxGeometry y="317" width="369" height="26" as="geometry" />
        </mxCell>
        <mxCell id="G6Bq0T_JhJ_VnhZVB8g7-35" value="+T* addComponent(Entity* e, Ts&amp;&amp; ...args)" style="text;align=left;verticalAlign=top;spacingLeft=4;spacingRight=4;overflow=hidden;rotatable=0;points=[[0,0.5],[1,0.5]];portConstraint=eastwest;" parent="G6Bq0T_JhJ_VnhZVB8g7-21" vertex="1">
          <mxGeometry y="343" width="369" height="26" as="geometry" />
        </mxCell>
        <mxCell id="G6Bq0T_JhJ_VnhZVB8g7-36" value="+removeComponent(Entity* e)" style="text;align=left;verticalAlign=top;spacingLeft=4;spacingRight=4;overflow=hidden;rotatable=0;points=[[0,0.5],[1,0.5]];portConstraint=eastwest;" parent="G6Bq0T_JhJ_VnhZVB8g7-21" vertex="1">
          <mxGeometry y="369" width="369" height="26" as="geometry" />
        </mxCell>
        <mxCell id="G6Bq0T_JhJ_VnhZVB8g7-37" value="+bool hasComponent(Entity* e)" style="text;align=left;verticalAlign=top;spacingLeft=4;spacingRight=4;overflow=hidden;rotatable=0;points=[[0,0.5],[1,0.5]];portConstraint=eastwest;" parent="G6Bq0T_JhJ_VnhZVB8g7-21" vertex="1">
          <mxGeometry y="395" width="369" height="26" as="geometry" />
        </mxCell>
        <mxCell id="G6Bq0T_JhJ_VnhZVB8g7-38" value="+T* getComponent(Entity* e)" style="text;align=left;verticalAlign=top;spacingLeft=4;spacingRight=4;overflow=hidden;rotatable=0;points=[[0,0.5],[1,0.5]];portConstraint=eastwest;" parent="G6Bq0T_JhJ_VnhZVB8g7-21" vertex="1">
          <mxGeometry y="421" width="369" height="26" as="geometry" />
        </mxCell>
        <mxCell id="G6Bq0T_JhJ_VnhZVB8g7-39" value="+setAlive(Entity* e, bool alive)" style="text;align=left;verticalAlign=top;spacingLeft=4;spacingRight=4;overflow=hidden;rotatable=0;points=[[0,0.5],[1,0.5]];portConstraint=eastwest;" parent="G6Bq0T_JhJ_VnhZVB8g7-21" vertex="1">
          <mxGeometry y="447" width="369" height="26" as="geometry" />
        </mxCell>
        <mxCell id="G6Bq0T_JhJ_VnhZVB8g7-40" value="+bool isAlive(Entity* e)" style="text;align=left;verticalAlign=top;spacingLeft=4;spacingRight=4;overflow=hidden;rotatable=0;points=[[0,0.5],[1,0.5]];portConstraint=eastwest;" parent="G6Bq0T_JhJ_VnhZVB8g7-21" vertex="1">
          <mxGeometry y="473" width="369" height="26" as="geometry" />
        </mxCell>
        <mxCell id="G6Bq0T_JhJ_VnhZVB8g7-41" value="+grpId_type groupId(Entity* e)" style="text;align=left;verticalAlign=top;spacingLeft=4;spacingRight=4;overflow=hidden;rotatable=0;points=[[0,0.5],[1,0.5]];portConstraint=eastwest;" parent="G6Bq0T_JhJ_VnhZVB8g7-21" vertex="1">
          <mxGeometry y="499" width="369" height="26" as="geometry" />
        </mxCell>
        <mxCell id="G6Bq0T_JhJ_VnhZVB8g7-42" value="+T* addSystem(Ts &amp;&amp;... args)" style="text;align=left;verticalAlign=top;spacingLeft=4;spacingRight=4;overflow=hidden;rotatable=0;points=[[0,0.5],[1,0.5]];portConstraint=eastwest;" parent="G6Bq0T_JhJ_VnhZVB8g7-21" vertex="1">
          <mxGeometry y="525" width="369" height="26" as="geometry" />
        </mxCell>
        <mxCell id="G6Bq0T_JhJ_VnhZVB8g7-43" value="+T* getSystem()" style="text;align=left;verticalAlign=top;spacingLeft=4;spacingRight=4;overflow=hidden;rotatable=0;points=[[0,0.5],[1,0.5]];portConstraint=eastwest;" parent="G6Bq0T_JhJ_VnhZVB8g7-21" vertex="1">
          <mxGeometry y="551" width="369" height="26" as="geometry" />
        </mxCell>
        <mxCell id="G6Bq0T_JhJ_VnhZVB8g7-44" value="+removeSystem()" style="text;align=left;verticalAlign=top;spacingLeft=4;spacingRight=4;overflow=hidden;rotatable=0;points=[[0,0.5],[1,0.5]];portConstraint=eastwest;" parent="G6Bq0T_JhJ_VnhZVB8g7-21" vertex="1">
          <mxGeometry y="577" width="369" height="26" as="geometry" />
        </mxCell>
        <mxCell id="G6Bq0T_JhJ_VnhZVB8g7-45" value="+send(const Message&amp; m, bool delay = false)" style="text;align=left;verticalAlign=top;spacingLeft=4;spacingRight=4;overflow=hidden;rotatable=0;points=[[0,0.5],[1,0.5]];portConstraint=eastwest;" parent="G6Bq0T_JhJ_VnhZVB8g7-21" vertex="1">
          <mxGeometry y="603" width="369" height="26" as="geometry" />
        </mxCell>
        <mxCell id="G6Bq0T_JhJ_VnhZVB8g7-46" value="+flushMessages()" style="text;align=left;verticalAlign=top;spacingLeft=4;spacingRight=4;overflow=hidden;rotatable=0;points=[[0,0.5],[1,0.5]];portConstraint=eastwest;" parent="G6Bq0T_JhJ_VnhZVB8g7-21" vertex="1">
          <mxGeometry y="629" width="369" height="26" as="geometry" />
        </mxCell>
        <mxCell id="G6Bq0T_JhJ_VnhZVB8g7-47" value="+vector&lt;Entity*&gt;&amp; getEntities(grpId_type gId = _grp_GENERAL)" style="text;align=left;verticalAlign=top;spacingLeft=4;spacingRight=4;overflow=hidden;rotatable=0;points=[[0,0.5],[1,0.5]];portConstraint=eastwest;" parent="G6Bq0T_JhJ_VnhZVB8g7-21" vertex="1">
          <mxGeometry y="655" width="369" height="26" as="geometry" />
        </mxCell>
        <mxCell id="G6Bq0T_JhJ_VnhZVB8g7-48" value="+addToGroupList(grpId_type gId, Entity* e)" style="text;align=left;verticalAlign=top;spacingLeft=4;spacingRight=4;overflow=hidden;rotatable=0;points=[[0,0.5],[1,0.5]];portConstraint=eastwest;" parent="G6Bq0T_JhJ_VnhZVB8g7-21" vertex="1">
          <mxGeometry y="681" width="369" height="26" as="geometry" />
        </mxCell>
        <mxCell id="G6Bq0T_JhJ_VnhZVB8g7-142" style="edgeStyle=orthogonalEdgeStyle;rounded=0;orthogonalLoop=1;jettySize=auto;html=1;exitX=0;exitY=0.5;exitDx=0;exitDy=0;entryX=-0.002;entryY=0.077;entryDx=0;entryDy=0;endArrow=open;endFill=0;endSize=10;entryPerimeter=0;" parent="WIyWlLk6GJQsqaUBKTNV-1" source="G6Bq0T_JhJ_VnhZVB8g7-120" target="Eer2En0-CgxTH97DHm9t-0" edge="1">
          <mxGeometry relative="1" as="geometry" />
        </mxCell>
        <mxCell id="G6Bq0T_JhJ_VnhZVB8g7-143" style="edgeStyle=orthogonalEdgeStyle;rounded=0;orthogonalLoop=1;jettySize=auto;html=1;entryX=0.5;entryY=0;entryDx=0;entryDy=0;endArrow=open;endFill=0;endSize=10;dashed=1;" parent="WIyWlLk6GJQsqaUBKTNV-1" source="Eer2En0-CgxTH97DHm9t-36" target="Eer2En0-CgxTH97DHm9t-0" edge="1">
          <mxGeometry relative="1" as="geometry">
            <Array as="points">
              <mxPoint x="1580" y="353" />
              <mxPoint x="1580" y="-10" />
              <mxPoint x="3385" y="-10" />
            </Array>
          </mxGeometry>
        </mxCell>
        <mxCell id="Ixgt6Wln41qKN_DeRJrS-9" style="edgeStyle=elbowEdgeStyle;rounded=0;orthogonalLoop=1;jettySize=auto;html=1;entryX=0.5;entryY=1;entryDx=0;entryDy=0;endArrow=block;endFill=0;endSize=10;elbow=vertical;" edge="1" parent="WIyWlLk6GJQsqaUBKTNV-1" source="Ixgt6Wln41qKN_DeRJrS-0" target="zkfFHV4jXpPFQw0GAbJ--0">
          <mxGeometry relative="1" as="geometry" />
        </mxCell>
        <mxCell id="Ixgt6Wln41qKN_DeRJrS-0" value="MapSystem" style="swimlane;fontStyle=0;align=center;verticalAlign=top;childLayout=stackLayout;horizontal=1;startSize=26;horizontalStack=0;resizeParent=1;resizeLast=0;collapsible=1;marginBottom=0;rounded=0;shadow=0;strokeWidth=1;" vertex="1" parent="WIyWlLk6GJQsqaUBKTNV-1">
          <mxGeometry x="-100" y="360" width="160" height="216" as="geometry">
            <mxRectangle x="130" y="380" width="160" height="26" as="alternateBounds" />
          </mxGeometry>
        </mxCell>
        <mxCell id="Ixgt6Wln41qKN_DeRJrS-1" value="+static sysId_type id" style="text;align=left;verticalAlign=top;spacingLeft=4;spacingRight=4;overflow=hidden;rotatable=0;points=[[0,0.5],[1,0.5]];portConstraint=eastwest;" vertex="1" parent="Ixgt6Wln41qKN_DeRJrS-0">
          <mxGeometry y="26" width="160" height="26" as="geometry" />
        </mxCell>
        <mxCell id="Ixgt6Wln41qKN_DeRJrS-2" value="-uint8_t winner_" style="text;align=left;verticalAlign=top;spacingLeft=4;spacingRight=4;overflow=hidden;rotatable=0;points=[[0,0.5],[1,0.5]];portConstraint=eastwest;rounded=0;shadow=0;html=0;" vertex="1" parent="Ixgt6Wln41qKN_DeRJrS-0">
          <mxGeometry y="52" width="160" height="26" as="geometry" />
        </mxCell>
        <mxCell id="Ixgt6Wln41qKN_DeRJrS-3" value="" style="line;html=1;strokeWidth=1;align=left;verticalAlign=middle;spacingTop=-1;spacingLeft=3;spacingRight=3;rotatable=0;labelPosition=right;points=[];portConstraint=eastwest;" vertex="1" parent="Ixgt6Wln41qKN_DeRJrS-0">
          <mxGeometry y="78" width="160" height="8" as="geometry" />
        </mxCell>
        <mxCell id="Ixgt6Wln41qKN_DeRJrS-4" value="+recieve(Message&amp; m)" style="text;align=left;verticalAlign=top;spacingLeft=4;spacingRight=4;overflow=hidden;rotatable=0;points=[[0,0.5],[1,0.5]];portConstraint=eastwest;fontStyle=4" vertex="1" parent="Ixgt6Wln41qKN_DeRJrS-0">
          <mxGeometry y="86" width="160" height="26" as="geometry" />
        </mxCell>
        <mxCell id="Ixgt6Wln41qKN_DeRJrS-5" value="+initSystem()" style="text;align=left;verticalAlign=top;spacingLeft=4;spacingRight=4;overflow=hidden;rotatable=0;points=[[0,0.5],[1,0.5]];portConstraint=eastwest;" vertex="1" parent="Ixgt6Wln41qKN_DeRJrS-0">
          <mxGeometry y="112" width="160" height="26" as="geometry" />
        </mxCell>
        <mxCell id="Ixgt6Wln41qKN_DeRJrS-6" value="+update()" style="text;align=left;verticalAlign=top;spacingLeft=4;spacingRight=4;overflow=hidden;rotatable=0;points=[[0,0.5],[1,0.5]];portConstraint=eastwest;" vertex="1" parent="Ixgt6Wln41qKN_DeRJrS-0">
          <mxGeometry y="138" width="160" height="26" as="geometry" />
        </mxCell>
        <mxCell id="Ixgt6Wln41qKN_DeRJrS-7" value="-loadMap()" style="text;align=left;verticalAlign=top;spacingLeft=4;spacingRight=4;overflow=hidden;rotatable=0;points=[[0,0.5],[1,0.5]];portConstraint=eastwest;" vertex="1" parent="Ixgt6Wln41qKN_DeRJrS-0">
          <mxGeometry y="164" width="160" height="26" as="geometry" />
        </mxCell>
        <mxCell id="Ixgt6Wln41qKN_DeRJrS-8" value="-loadTile(int id)" style="text;align=left;verticalAlign=top;spacingLeft=4;spacingRight=4;overflow=hidden;rotatable=0;points=[[0,0.5],[1,0.5]];portConstraint=eastwest;" vertex="1" parent="Ixgt6Wln41qKN_DeRJrS-0">
          <mxGeometry y="190" width="160" height="26" as="geometry" />
        </mxCell>
        <mxCell id="Ixgt6Wln41qKN_DeRJrS-10" value="TileComponent" style="swimlane;fontStyle=2;align=center;verticalAlign=top;childLayout=stackLayout;horizontal=1;startSize=30;horizontalStack=0;resizeParent=1;resizeLast=0;collapsible=1;marginBottom=0;rounded=0;shadow=0;strokeWidth=1;" vertex="1" parent="WIyWlLk6GJQsqaUBKTNV-1">
          <mxGeometry x="2270" y="640" width="270" height="239" as="geometry">
            <mxRectangle x="220" y="120" width="160" height="26" as="alternateBounds" />
          </mxGeometry>
        </mxCell>
        <mxCell id="Ixgt6Wln41qKN_DeRJrS-11" value="-tileId id" style="text;align=left;verticalAlign=top;spacingLeft=4;spacingRight=4;overflow=hidden;rotatable=0;points=[[0,0.5],[1,0.5]];portConstraint=eastwest;container=0;strokeColor=none;" vertex="1" parent="Ixgt6Wln41qKN_DeRJrS-10">
          <mxGeometry y="30" width="270" height="26" as="geometry" />
        </mxCell>
        <mxCell id="Ixgt6Wln41qKN_DeRJrS-12" style="text;align=left;verticalAlign=top;spacingLeft=4;spacingRight=4;overflow=hidden;rotatable=0;points=[[0,0.5],[1,0.5]];portConstraint=eastwest;container=0;strokeColor=default;" vertex="1" parent="Ixgt6Wln41qKN_DeRJrS-10">
          <mxGeometry y="56" width="270" height="1" as="geometry" />
        </mxCell>
        <mxCell id="Ixgt6Wln41qKN_DeRJrS-21" value="+initComponent()" style="text;align=left;verticalAlign=top;spacingLeft=4;spacingRight=4;overflow=hidden;rotatable=0;points=[[0,0.5],[1,0.5]];portConstraint=eastwest;" vertex="1" parent="Ixgt6Wln41qKN_DeRJrS-10">
          <mxGeometry y="57" width="270" height="26" as="geometry" />
        </mxCell>
        <mxCell id="Ixgt6Wln41qKN_DeRJrS-13" value="+onPlaceTower()" style="text;align=left;verticalAlign=top;spacingLeft=4;spacingRight=4;overflow=hidden;rotatable=0;points=[[0,0.5],[1,0.5]];portConstraint=eastwest;" vertex="1" parent="Ixgt6Wln41qKN_DeRJrS-10">
          <mxGeometry y="83" width="270" height="26" as="geometry" />
        </mxCell>
        <mxCell id="Ixgt6Wln41qKN_DeRJrS-20" value="+render()" style="text;align=left;verticalAlign=top;spacingLeft=4;spacingRight=4;overflow=hidden;rotatable=0;points=[[0,0.5],[1,0.5]];portConstraint=eastwest;" vertex="1" parent="Ixgt6Wln41qKN_DeRJrS-10">
          <mxGeometry y="109" width="270" height="26" as="geometry" />
        </mxCell>
        <mxCell id="Ixgt6Wln41qKN_DeRJrS-19" style="edgeStyle=orthogonalEdgeStyle;rounded=0;orthogonalLoop=1;jettySize=auto;html=1;entryX=0.49;entryY=0.971;entryDx=0;entryDy=0;entryPerimeter=0;endSize=10;endArrow=block;endFill=0;" edge="1" parent="WIyWlLk6GJQsqaUBKTNV-1" source="Ixgt6Wln41qKN_DeRJrS-10" target="Eer2En0-CgxTH97DHm9t-34">
          <mxGeometry relative="1" as="geometry">
            <Array as="points">
              <mxPoint x="2405" y="590" />
              <mxPoint x="2240" y="590" />
              <mxPoint x="2240" y="280" />
              <mxPoint x="2702" y="280" />
            </Array>
          </mxGeometry>
        </mxCell>
        <mxCell id="Ixgt6Wln41qKN_DeRJrS-40" value="BulletComponent" style="swimlane;fontStyle=2;align=center;verticalAlign=top;childLayout=stackLayout;horizontal=1;startSize=30;horizontalStack=0;resizeParent=1;resizeLast=0;collapsible=1;marginBottom=0;rounded=0;shadow=0;strokeWidth=1;" vertex="1" parent="WIyWlLk6GJQsqaUBKTNV-1">
          <mxGeometry x="3030" y="710" width="270" height="135" as="geometry">
            <mxRectangle x="220" y="120" width="160" height="26" as="alternateBounds" />
          </mxGeometry>
        </mxCell>
        <mxCell id="Ixgt6Wln41qKN_DeRJrS-41" value="-Transform* transform" style="text;align=left;verticalAlign=top;spacingLeft=4;spacingRight=4;overflow=hidden;rotatable=0;points=[[0,0.5],[1,0.5]];portConstraint=eastwest;container=0;strokeColor=none;" vertex="1" parent="Ixgt6Wln41qKN_DeRJrS-40">
          <mxGeometry y="30" width="270" height="26" as="geometry" />
        </mxCell>
        <mxCell id="Ixgt6Wln41qKN_DeRJrS-44" value="+static cmpId id" style="text;align=left;verticalAlign=top;spacingLeft=4;spacingRight=4;overflow=hidden;rotatable=0;points=[[0,0.5],[1,0.5]];portConstraint=eastwest;container=0;strokeColor=none;" vertex="1" parent="Ixgt6Wln41qKN_DeRJrS-40">
          <mxGeometry y="56" width="270" height="26" as="geometry" />
        </mxCell>
        <mxCell id="Ixgt6Wln41qKN_DeRJrS-45" style="text;align=left;verticalAlign=top;spacingLeft=4;spacingRight=4;overflow=hidden;rotatable=0;points=[[0,0.5],[1,0.5]];portConstraint=eastwest;container=0;strokeColor=default;" vertex="1" parent="Ixgt6Wln41qKN_DeRJrS-40">
          <mxGeometry y="82" width="270" height="1" as="geometry" />
        </mxCell>
        <mxCell id="Ixgt6Wln41qKN_DeRJrS-46" value="+initComponent()" style="text;align=left;verticalAlign=top;spacingLeft=4;spacingRight=4;overflow=hidden;rotatable=0;points=[[0,0.5],[1,0.5]];portConstraint=eastwest;" vertex="1" parent="Ixgt6Wln41qKN_DeRJrS-40">
          <mxGeometry y="83" width="270" height="26" as="geometry" />
        </mxCell>
        <mxCell id="Ixgt6Wln41qKN_DeRJrS-47" value="+onTravelEnds()" style="text;align=left;verticalAlign=top;spacingLeft=4;spacingRight=4;overflow=hidden;rotatable=0;points=[[0,0.5],[1,0.5]];portConstraint=eastwest;" vertex="1" parent="Ixgt6Wln41qKN_DeRJrS-40">
          <mxGeometry y="109" width="270" height="26" as="geometry" />
        </mxCell>
        <mxCell id="Ixgt6Wln41qKN_DeRJrS-61" style="edgeStyle=orthogonalEdgeStyle;rounded=0;orthogonalLoop=1;jettySize=auto;html=1;entryX=0.49;entryY=1.052;entryDx=0;entryDy=0;entryPerimeter=0;endSize=10;endArrow=block;endFill=0;" edge="1" parent="WIyWlLk6GJQsqaUBKTNV-1" source="Ixgt6Wln41qKN_DeRJrS-40" target="Eer2En0-CgxTH97DHm9t-34">
          <mxGeometry relative="1" as="geometry">
            <Array as="points">
              <mxPoint x="3180" y="280" />
              <mxPoint x="2702" y="280" />
            </Array>
          </mxGeometry>
        </mxCell>
        <mxCell id="Ixgt6Wln41qKN_DeRJrS-62" style="edgeStyle=orthogonalEdgeStyle;rounded=0;orthogonalLoop=1;jettySize=auto;html=1;entryX=0;entryY=0.5;entryDx=0;entryDy=0;dashed=1;endArrow=open;endFill=0;endSize=10;" edge="1" parent="WIyWlLk6GJQsqaUBKTNV-1" source="Eer2En0-CgxTH97DHm9t-50" target="Eer2En0-CgxTH97DHm9t-54">
          <mxGeometry relative="1" as="geometry" />
        </mxCell>
        <mxCell id="Ixgt6Wln41qKN_DeRJrS-63" style="edgeStyle=orthogonalEdgeStyle;rounded=0;orthogonalLoop=1;jettySize=auto;html=1;entryX=1.001;entryY=0.023;entryDx=0;entryDy=0;entryPerimeter=0;dashed=1;endArrow=open;endFill=0;endSize=10;" edge="1" parent="WIyWlLk6GJQsqaUBKTNV-1" source="Ixgt6Wln41qKN_DeRJrS-41" target="Eer2En0-CgxTH97DHm9t-53">
          <mxGeometry relative="1" as="geometry">
            <Array as="points">
              <mxPoint x="2860" y="753" />
              <mxPoint x="2860" y="327" />
            </Array>
          </mxGeometry>
        </mxCell>
      </root>
    </mxGraphModel>
  </diagram>
</mxfile>
